Benne-Regular.ufo
<glyph name="knAnusvara" format="1">
  <advance width="506"/>
  <unicode hex="0C82"/>
  <outline>
    <contour>
      <point x="88" y="343"/>
      <point x="162" y="446"/>
      <point x="253" y="446" type="curve" smooth="yes"/>
      <point x="344" y="446"/>
      <point x="418" y="343"/>
      <point x="418" y="215" type="curve" smooth="yes"/>
      <point x="418" y="88"/>
      <point x="344" y="-14"/>
      <point x="253" y="-14" type="curve" smooth="yes"/>
      <point x="162" y="-14"/>
      <point x="88" y="88"/>
      <point x="88" y="215" type="curve" smooth="yes"/>
    </contour>
    <contour>
      <point x="129" y="148"/>
      <point x="184" y="85"/>
      <point x="253" y="85" type="curve" smooth="yes"/>
      <point x="322" y="85"/>
      <point x="377" y="144"/>
      <point x="377" y="215" type="curve" smooth="yes"/>
      <point x="377" y="301"/>
      <point x="322" y="368"/>
      <point x="253" y="368" type="curve" smooth="yes"/>
      <point x="184" y="368"/>
      <point x="129" y="305"/>
      <point x="129" y="226" type="curve" smooth="yes"/>
    </contour>
  </outline>
</glyph>
<glyph name="knAA" format="1">
  <advance width="658"/>
  <unicode hex="0C86"/>
  <outline>
    <contour>
      <point x="503" y="450"/>
      <point x="458" y="413"/>
      <point x="458" y="360" type="curve" smooth="yes"/>
      <point x="458" y="283"/>
      <point x="550" y="247"/>
      <point x="550" y="183" type="curve" smooth="yes"/>
      <point x="550" y="116"/>
      <point x="451" y="79"/>
      <point x="352" y="79" type="curve"/>
      <point x="187" y="79"/>
      <point x="101" y="151"/>
      <point x="101" y="261" type="curve" smooth="yes"/>
      <point x="101" y="306"/>
      <point x="115" y="346"/>
      <point x="139" y="371" type="curve"/>
      <point x="137" y="361"/>
      <point x="136" y="350"/>
      <point x="136" y="339" type="curve" smooth="yes"/>
      <point x="136" y="275"/>
      <point x="172" y="244"/>
      <point x="212" y="244" type="curve" smooth="yes"/>
      <point x="260" y="244"/>
      <point x="288" y="290"/>
      <point x="288" y="350" type="curve" smooth="yes"/>
      <point x="288" y="404"/>
      <point x="265" y="450"/>
      <point x="209" y="450" type="curve" smooth="yes"/>
      <point x="129" y="450"/>
      <point x="60" y="358"/>
      <point x="60" y="238" type="curve" smooth="yes"/>
      <point x="60" y="88"/>
      <point x="168" y="-14"/>
      <point x="352" y="-14" type="curve"/>
      <point x="477" y="-14"/>
      <point x="597" y="61"/>
      <point x="597" y="171" type="curve" smooth="yes"/>
      <point x="597" y="271"/>
      <point x="498" y="291"/>
      <point x="498" y="351" type="curve" smooth="yes"/>
      <point x="498" y="381"/>
      <point x="522" y="398"/>
      <point x="550" y="398" type="curve" smooth="yes"/>
      <point x="578" y="398"/>
      <point x="597" y="381"/>
      <point x="597" y="357" type="curve" smooth="yes"/>
      <point x="597" y="331"/>
      <point x="574" y="316"/>
      <point x="535" y="316" type="curve" smooth="yes"/>
      <point x="356" y="316" type="line"/>
      <point x="356" y="244" type="line"/>
      <point x="506" y="244" type="line"/>
      <point x="579" y="244"/>
      <point x="628" y="282"/>
      <point x="628" y="349" type="curve" smooth="yes"/>
      <point x="628" y="408"/>
      <point x="591" y="450"/>
      <point x="545" y="450" type="curve" smooth="yes"/>
    </contour>
    <contour>
      <point x="241" y="397"/>
      <point x="262" y="381"/>
      <point x="262" y="350" type="curve" smooth="yes"/>
      <point x="262" y="324"/>
      <point x="246" y="306"/>
      <point x="215" y="306" type="curve" smooth="yes"/>
      <point x="186" y="306"/>
      <point x="162" y="322"/>
      <point x="162" y="363" type="curve" smooth="yes"/>
      <point x="162" y="371"/>
      <point x="163" y="381"/>
      <point x="165" y="390" type="curve"/>
      <point x="175" y="394"/>
      <point x="187" y="397"/>
      <point x="203" y="397" type="curve" smooth="yes"/>
    </contour>
  </outline>
</glyph>
<glyph name="knI" format="1">
  <advance width="594"/>
  <unicode hex="0C87"/>
  <outline>
    <contour>
      <point x="465" y="368"/>
      <point x="500" y="322"/>
      <point x="500" y="237" type="curve"/>
      <point x="500" y="128"/>
      <point x="443" y="79"/>
      <point x="337" y="79" type="curve"/>
      <point x="281" y="79"/>
      <point x="254" y="95"/>
      <point x="254" y="114" type="curve" smooth="yes"/>
      <point x="254" y="135"/>
      <point x="272" y="151"/>
      <point x="327" y="151" type="curve" smooth="yes"/>
      <point x="444" y="151"/>
      <point x="532" y="40"/>
      <point x="532" y="-63" type="curve" smooth="yes"/>
      <point x="532" y="-76"/>
      <point x="542" y="-86"/>
      <point x="553" y="-86" type="curve" smooth="yes"/>
      <point x="564" y="-86"/>
      <point x="574" y="-76"/>
      <point x="574" y="-55" type="curve" smooth="yes"/>
      <point x="574" y="24"/>
      <point x="482" y="192"/>
      <point x="318" y="192" type="curve" smooth="yes"/>
      <point x="234" y="192"/>
      <point x="182" y="146"/>
      <point x="182" y="100" type="curve" smooth="yes"/>
      <point x="182" y="33"/>
      <point x="247" y="-14"/>
      <point x="326" y="-14" type="curve" smooth="yes"/>
      <point x="452" y="-14"/>
      <point x="542" y="92"/>
      <point x="542" y="254" type="curve"/>
      <point x="542" y="372"/>
      <point x="498" y="450"/>
      <point x="417" y="450" type="curve"/>
      <point x="357" y="450"/>
      <point x="298" y="399"/>
      <point x="278" y="326" type="curve"/>
      <point x="276" y="326" type="line"/>
      <point x="256" y="399"/>
      <point x="195" y="450"/>
      <point x="137" y="450" type="curve"/>
      <point x="71" y="450"/>
      <point x="20" y="395"/>
      <point x="20" y="326" type="curve" smooth="yes"/>
      <point x="20" y="300"/>
      <point x="27" y="277"/>
      <point x="46" y="256" type="curve"/>
      <point x="73" y="274" type="line"/>
      <point x="67" y="281"/>
      <point x="62" y="294"/>
      <point x="62" y="306" type="curve" smooth="yes"/>
      <point x="62" y="339"/>
      <point x="94" y="368"/>
      <point x="139" y="368" type="curve"/>
      <point x="204" y="368"/>
      <point x="262" y="310"/>
      <point x="273" y="244" type="curve"/>
      <point x="281" y="244" type="line"/>
      <point x="293" y="310"/>
      <point x="348" y="368"/>
      <point x="413" y="368" type="curve"/>
    </contour>
  </outline>
</glyph>
<glyph name="knII" format="1">
  <advance width="758"/>
  <unicode hex="0C88"/>
  <outline>
    <contour>
      <point x="696" y="195"/>
      <point x="585" y="241"/>
      <point x="585" y="314" type="curve" smooth="yes"/>
      <point x="585" y="345"/>
      <point x="606" y="362"/>
      <point x="629" y="362" type="curve" smooth="yes"/>
      <point x="653" y="362"/>
      <point x="673" y="345"/>
      <point x="673" y="313" type="curve" smooth="yes"/>
      <point x="673" y="263"/>
      <point x="623" y="257"/>
      <point x="553" y="257" type="curve" smooth="yes"/>
      <point x="25" y="257" type="line"/>
      <point x="25" y="206" type="line"/>
      <point x="559" y="206" type="line" smooth="yes"/>
      <point x="668" y="206"/>
      <point x="713" y="247"/>
      <point x="713" y="319" type="curve"/>
      <point x="713" y="383"/>
      <point x="673" y="415"/>
      <point x="630" y="415" type="curve" smooth="yes"/>
      <point x="582" y="415"/>
      <point x="544" y="382"/>
      <point x="544" y="328" type="curve" smooth="yes"/>
      <point x="544" y="239"/>
      <point x="647" y="208"/>
      <point x="647" y="120" type="curve"/>
      <point x="648" y="92"/>
      <point x="635" y="76"/>
      <point x="609" y="67" type="curve" smooth="yes"/>
      <point x="592" y="61"/>
      <point x="574" y="63"/>
      <point x="561" y="58" type="curve" smooth="yes"/>
      <point x="546" y="53"/>
      <point x="536" y="40"/>
      <point x="536" y="24" type="curve" smooth="yes"/>
      <point x="536" y="3"/>
      <point x="553" y="-14"/>
      <point x="586" y="-14" type="curve" smooth="yes"/>
      <point x="649" y="-14"/>
      <point x="696" y="27"/>
      <point x="696" y="95" type="curve"/>
    </contour>
    <contour>
      <point x="191" y="414"/>
      <point x="86" y="348"/>
      <point x="86" y="216" type="curve" smooth="yes"/>
      <point x="86" y="84"/>
      <point x="165" y="-14"/>
      <point x="286" y="-14" type="curve"/>
      <point x="407" y="-14"/>
      <point x="486" y="84"/>
      <point x="486" y="216" type="curve" smooth="yes"/>
      <point x="486" y="348"/>
      <point x="381" y="414"/>
      <point x="286" y="414" type="curve"/>
    </contour>
    <contour>
      <point x="374" y="375"/>
      <point x="439" y="311"/>
      <point x="439" y="225" type="curve" smooth="yes"/>
      <point x="439" y="138"/>
      <point x="374" y="76"/>
      <point x="286" y="76" type="curve"/>
      <point x="198" y="76"/>
      <point x="133" y="138"/>
      <point x="133" y="225" type="curve" smooth="yes"/>
      <point x="133" y="311"/>
      <point x="198" y="375"/>
      <point x="286" y="375" type="curve"/>
    </contour>
    <contour>
      <point x="415" y="557" type="line"/>
      <point x="439" y="542"/>
      <point x="447" y="520"/>
      <point x="447" y="501" type="curve" smooth="yes"/>
      <point x="447" y="465"/>
      <point x="420" y="440"/>
      <point x="375" y="440" type="curve" smooth="yes"/>
      <point x="86" y="440" type="line"/>
      <point x="86" y="368" type="line"/>
      <point x="228" y="368" type="line"/>
      <point x="286" y="384" type="line"/>
      <point x="342" y="368" type="line"/>
      <point x="375" y="368" type="line" smooth="yes"/>
      <point x="444" y="368"/>
      <point x="493" y="416"/>
      <point x="493" y="476" type="curve" smooth="yes"/>
      <point x="493" y="515"/>
      <point x="473" y="551"/>
      <point x="428" y="575" type="curve"/>
    </contour>
  </outline>
</glyph>
<glyph name="knU" format="1">
  <advance width="889"/>
  <unicode hex="0C89"/>
  <outline>
    <contour>
      <point x="242" y="324"/>
      <point x="226" y="306"/>
      <point x="194" y="306" type="curve" smooth="yes"/>
      <point x="166" y="306"/>
      <point x="142" y="322"/>
      <point x="142" y="362" type="curve" smooth="yes"/>
      <point x="142" y="371"/>
      <point x="143" y="381"/>
      <point x="145" y="390" type="curve"/>
      <point x="155" y="394"/>
      <point x="167" y="397"/>
      <point x="179" y="397" type="curve" smooth="yes"/>
      <point x="221" y="397"/>
      <point x="242" y="381"/>
      <point x="242" y="347" type="curve" smooth="yes"/>
    </contour>
    <contour>
      <point x="844" y="380"/>
      <point x="777" y="450"/>
      <point x="712" y="450" type="curve" smooth="yes"/>
      <point x="681" y="450"/>
      <point x="664" y="433"/>
      <point x="664" y="413" type="curve" smooth="yes"/>
      <point x="664" y="396"/>
      <point x="674" y="382"/>
      <point x="688" y="378" type="curve" smooth="yes"/>
      <point x="708" y="372"/>
      <point x="716" y="376"/>
      <point x="737" y="369" type="curve" smooth="yes"/>
      <point x="769" y="358"/>
      <point x="803" y="316"/>
      <point x="803" y="253" type="curve"/>
      <point x="803" y="152"/>
      <point x="739" y="79"/>
      <point x="667" y="79" type="curve" smooth="yes"/>
      <point x="595" y="79"/>
      <point x="559" y="118"/>
      <point x="559" y="177" type="curve" smooth="yes"/>
      <point x="559" y="221"/>
      <point x="567" y="270"/>
      <point x="567" y="324" type="curve" smooth="yes"/>
      <point x="567" y="392"/>
      <point x="529" y="450"/>
      <point x="458" y="450" type="curve"/>
      <point x="383" y="450"/>
      <point x="339" y="392"/>
      <point x="339" y="318" type="curve" smooth="yes"/>
      <point x="339" y="270"/>
      <point x="354" y="221"/>
      <point x="354" y="163" type="curve" smooth="yes"/>
      <point x="354" y="118"/>
      <point x="322" y="79"/>
      <point x="237" y="79" type="curve"/>
      <point x="136" y="79"/>
      <point x="91" y="188"/>
      <point x="91" y="254" type="curve"/>
      <point x="91" y="306"/>
      <point x="100" y="346"/>
      <point x="119" y="371" type="curve"/>
      <point x="117" y="361"/>
      <point x="116" y="350"/>
      <point x="116" y="338" type="curve" smooth="yes"/>
      <point x="116" y="275"/>
      <point x="152" y="244"/>
      <point x="194" y="244" type="curve" smooth="yes"/>
      <point x="240" y="244"/>
      <point x="268" y="290"/>
      <point x="268" y="347" type="curve" smooth="yes"/>
      <point x="268" y="404"/>
      <point x="245" y="450"/>
      <point x="184" y="450" type="curve" smooth="yes"/>
      <point x="112" y="450"/>
      <point x="50" y="358"/>
      <point x="50" y="244" type="curve"/>
      <point x="50" y="91"/>
      <point x="143" y="-14"/>
      <point x="252" y="-14" type="curve"/>
      <point x="346" y="-14"/>
      <point x="390" y="35"/>
      <point x="390" y="129" type="curve" smooth="yes"/>
      <point x="390" y="197"/>
      <point x="379" y="245"/>
      <point x="379" y="293" type="curve" smooth="yes"/>
      <point x="379" y="343"/>
      <point x="411" y="367"/>
      <point x="458" y="367" type="curve"/>
      <point x="501" y="367"/>
      <point x="527" y="343"/>
      <point x="527" y="293" type="curve" smooth="yes"/>
      <point x="527" y="238"/>
      <point x="523" y="190"/>
      <point x="523" y="129" type="curve" smooth="yes"/>
      <point x="523" y="55"/>
      <point x="576" y="-14"/>
      <point x="652" y="-14" type="curve" smooth="yes"/>
      <point x="771" y="-14"/>
      <point x="844" y="88"/>
      <point x="844" y="244" type="curve"/>
    </contour>
  </outline>
</glyph>
<glyph name="knUU" format="1">
  <advance width="1175"/>
  <unicode hex="0C8A"/>
  <outline>
    <contour>
      <point x="838" y="450"/>
      <point x="753" y="395"/>
      <point x="753" y="253" type="curve"/>
      <point x="753" y="152"/>
      <point x="739" y="79"/>
      <point x="667" y="79" type="curve" smooth="yes"/>
      <point x="595" y="79"/>
      <point x="559" y="118"/>
      <point x="559" y="177" type="curve" smooth="yes"/>
      <point x="559" y="221"/>
      <point x="567" y="270"/>
      <point x="567" y="324" type="curve" smooth="yes"/>
      <point x="567" y="392"/>
      <point x="529" y="450"/>
      <point x="458" y="450" type="curve"/>
      <point x="383" y="450"/>
      <point x="339" y="392"/>
      <point x="339" y="318" type="curve" smooth="yes"/>
      <point x="339" y="270"/>
      <point x="354" y="221"/>
      <point x="354" y="163" type="curve" smooth="yes"/>
      <point x="354" y="118"/>
      <point x="322" y="79"/>
      <point x="237" y="79" type="curve"/>
      <point x="136" y="79"/>
      <point x="91" y="188"/>
      <point x="91" y="254" type="curve"/>
      <point x="91" y="306"/>
      <point x="100" y="346"/>
      <point x="119" y="371" type="curve"/>
      <point x="117" y="361"/>
      <point x="116" y="350"/>
      <point x="116" y="338" type="curve" smooth="yes"/>
      <point x="116" y="275"/>
      <point x="152" y="244"/>
      <point x="194" y="244" type="curve" smooth="yes"/>
      <point x="240" y="244"/>
      <point x="268" y="290"/>
      <point x="268" y="347" type="curve" smooth="yes"/>
      <point x="268" y="404"/>
      <point x="245" y="450"/>
      <point x="184" y="450" type="curve" smooth="yes"/>
      <point x="112" y="450"/>
      <point x="50" y="358"/>
      <point x="50" y="244" type="curve"/>
      <point x="50" y="91"/>
      <point x="143" y="-14"/>
      <point x="252" y="-14" type="curve"/>
      <point x="346" y="-14"/>
      <point x="390" y="35"/>
      <point x="390" y="129" type="curve" smooth="yes"/>
      <point x="390" y="197"/>
      <point x="379" y="245"/>
      <point x="379" y="293" type="curve" smooth="yes"/>
      <point x="379" y="343"/>
      <point x="411" y="367"/>
      <point x="458" y="367" type="curve"/>
      <point x="501" y="367"/>
      <point x="527" y="343"/>
      <point x="527" y="293" type="curve" smooth="yes"/>
      <point x="527" y="238"/>
      <point x="523" y="190"/>
      <point x="523" y="129" type="curve" smooth="yes"/>
      <point x="523" y="55"/>
      <point x="576" y="-14"/>
      <point x="652" y="-14" type="curve" smooth="yes"/>
      <point x="771" y="-14"/>
      <point x="794" y="88"/>
      <point x="794" y="254" type="curve"/>
      <point x="794" y="360"/>
      <point x="881" y="378"/>
      <point x="929" y="378" type="curve" smooth="yes"/>
      <point x="1001" y="378"/>
      <point x="1084" y="323"/>
      <point x="1084" y="187" type="curve" smooth="yes"/>
      <point x="1084" y="107"/>
      <point x="1043" y="42"/>
      <point x="971" y="42" type="curve" smooth="yes"/>
      <point x="934" y="42"/>
      <point x="904" y="67"/>
      <point x="904" y="99" type="curve"/>
      <point x="904" y="113"/>
      <point x="910" y="133"/>
      <point x="921" y="133" type="curve" smooth="yes"/>
      <point x="923" y="133"/>
      <point x="924" y="132"/>
      <point x="924" y="127" type="curve" smooth="yes"/>
      <point x="924" y="101"/>
      <point x="939" y="83"/>
      <point x="963" y="83" type="curve" smooth="yes"/>
      <point x="987" y="83"/>
      <point x="1005" y="103"/>
      <point x="1005" y="128" type="curve" smooth="yes"/>
      <point x="1005" y="151"/>
      <point x="984" y="177"/>
      <point x="946" y="177" type="curve" smooth="yes"/>
      <point x="894" y="177"/>
      <point x="868" y="131"/>
      <point x="868" y="84" type="curve"/>
      <point x="868" y="30"/>
      <point x="912" y="-14"/>
      <point x="965" y="-14" type="curve" smooth="yes"/>
      <point x="1051" y="-14"/>
      <point x="1120" y="65"/>
      <point x="1120" y="217" type="curve" smooth="yes"/>
      <point x="1120" y="379"/>
      <point x="1021" y="450"/>
      <point x="919" y="450" type="curve"/>
    </contour>
    <contour>
      <point x="221" y="397"/>
      <point x="242" y="381"/>
      <point x="242" y="347" type="curve" smooth="yes"/>
      <point x="242" y="324"/>
      <point x="226" y="306"/>
      <point x="194" y="306" type="curve" smooth="yes"/>
      <point x="166" y="306"/>
      <point x="142" y="322"/>
      <point x="142" y="362" type="curve" smooth="yes"/>
      <point x="142" y="371"/>
      <point x="143" y="381"/>
      <point x="145" y="390" type="curve"/>
      <point x="155" y="394"/>
      <point x="167" y="397"/>
      <point x="179" y="397" type="curve" smooth="yes"/>
    </contour>
  </outline>
</glyph>
<glyph name="knEE" format="1">
  <advance width="643"/>
  <unicode hex="0C8F"/>
  <outline>
    <contour>
      <point x="552" y="130"/>
      <point x="509" y="79"/>
      <point x="434" y="79" type="curve"/>
      <point x="370" y="79"/>
      <point x="312" y="127"/>
      <point x="301" y="192" type="curve"/>
      <point x="293" y="192" type="line"/>
      <point x="281" y="126"/>
      <point x="224" y="79"/>
      <point x="161" y="79" type="curve"/>
      <point x="113" y="79"/>
      <point x="87" y="108"/>
      <point x="87" y="143" type="curve" smooth="yes"/>
      <point x="87" y="175"/>
      <point x="110" y="196"/>
      <point x="142" y="196" type="curve" smooth="yes"/>
      <point x="168" y="196"/>
      <point x="190" y="187"/>
      <point x="199" y="166" type="curve"/>
      <point x="213" y="179" type="line"/>
      <point x="202" y="216"/>
      <point x="181" y="248"/>
      <point x="139" y="248" type="curve" smooth="yes"/>
      <point x="87" y="248"/>
      <point x="50" y="200"/>
      <point x="50" y="123" type="curve" smooth="yes"/>
      <point x="50" y="47"/>
      <point x="91" y="-13"/>
      <point x="156" y="-14" type="curve"/>
      <point x="216" y="-14"/>
      <point x="276" y="37"/>
      <point x="296" y="110" type="curve"/>
      <point x="298" y="110" type="line"/>
      <point x="318" y="37"/>
      <point x="378" y="-14"/>
      <point x="438" y="-14" type="curve"/>
      <point x="533" y="-14"/>
      <point x="588" y="65"/>
      <point x="588" y="193" type="curve"/>
      <point x="588" y="338"/>
      <point x="481" y="461"/>
      <point x="330" y="461" type="curve"/>
      <point x="309" y="416"/>
      <point x="282" y="404"/>
      <point x="243" y="404" type="curve"/>
      <point x="194" y="404"/>
      <point x="161" y="436"/>
      <point x="175" y="501" type="curve"/>
      <point x="152" y="515" type="line"/>
      <point x="96" y="433"/>
      <point x="138" y="327"/>
      <point x="236" y="327" type="curve" smooth="yes"/>
      <point x="292" y="327"/>
      <point x="326" y="355"/>
      <point x="348" y="412" type="curve"/>
      <point x="459" y="397"/>
      <point x="552" y="320"/>
      <point x="552" y="204" type="curve"/>
    </contour>
  </outline>
</glyph>
<glyph name="knOO" format="1">
  <advance width="618"/>
  <unicode hex="0C93"/>
  <outline>
    <contour>
      <point x="578" y="159"/>
      <point x="554" y="190"/>
      <point x="527" y="216" type="curve"/>
      <point x="505" y="201" type="line"/>
      <point x="524" y="180"/>
      <point x="534" y="158"/>
      <point x="534" y="134" type="curve"/>
      <point x="547" y="109" type="line"/>
      <point x="578" y="109" type="line"/>
    </contour>
    <contour>
      <point x="159" y="461"/>
      <point x="148" y="487"/>
      <point x="148" y="513" type="curve" smooth="yes"/>
      <point x="148" y="542"/>
      <point x="167" y="570"/>
      <point x="203" y="583" type="curve"/>
      <point x="187" y="602" type="line"/>
      <point x="131" y="591"/>
      <point x="98" y="556"/>
      <point x="98" y="518" type="curve" smooth="yes"/>
      <point x="98" y="479"/>
      <point x="123" y="450"/>
      <point x="172" y="429" type="curve"/>
      <point x="190" y="442" type="line"/>
    </contour>
    <contour>
      <point x="560" y="134" type="line"/>
      <point x="534" y="134" type="line"/>
      <point x="534" y="101"/>
      <point x="506" y="79"/>
      <point x="464" y="79" type="curve" smooth="yes"/>
      <point x="400" y="79"/>
      <point x="343" y="127"/>
      <point x="332" y="192" type="curve"/>
      <point x="324" y="192" type="line"/>
      <point x="312" y="126"/>
      <point x="255" y="79"/>
      <point x="192" y="79" type="curve" smooth="yes"/>
      <point x="146" y="79"/>
      <point x="122" y="99"/>
      <point x="122" y="136" type="curve"/>
      <point x="92" y="136" type="line"/>
      <point x="78" y="109" type="line"/>
      <point x="78" y="33"/>
      <point x="131" y="-14"/>
      <point x="189" y="-14" type="curve" smooth="yes"/>
      <point x="248" y="-14"/>
      <point x="307" y="37"/>
      <point x="327" y="110" type="curve"/>
      <point x="329" y="110" type="line"/>
      <point x="349" y="37"/>
      <point x="408" y="-14"/>
      <point x="467" y="-14" type="curve" smooth="yes"/>
      <point x="525" y="-14"/>
      <point x="578" y="33"/>
      <point x="578" y="109" type="curve"/>
    </contour>
    <contour>
      <point x="122" y="163"/>
      <point x="148" y="189"/>
      <point x="176" y="218" type="curve" smooth="yes"/>
      <point x="211" y="254"/>
      <point x="250" y="294"/>
      <point x="250" y="345" type="curve" smooth="yes"/>
      <point x="250" y="410"/>
      <point x="199" y="450"/>
      <point x="142" y="450" type="curve" smooth="yes"/>
      <point x="92" y="450"/>
      <point x="40" y="420"/>
      <point x="40" y="360" type="curve" smooth="yes"/>
      <point x="40" y="332"/>
      <point x="50" y="304"/>
      <point x="68" y="285" type="curve"/>
      <point x="95" y="303" type="line"/>
      <point x="88" y="316"/>
      <point x="86" y="326"/>
      <point x="86" y="336" type="curve" smooth="yes"/>
      <point x="86" y="368"/>
      <point x="108" y="391"/>
      <point x="142" y="391" type="curve" smooth="yes"/>
      <point x="174" y="391"/>
      <point x="204" y="370"/>
      <point x="204" y="333" type="curve" smooth="yes"/>
      <point x="204" y="297"/>
      <point x="177" y="269"/>
      <point x="149" y="240" type="curve" smooth="yes"/>
      <point x="115" y="205"/>
      <point x="78" y="168"/>
      <point x="78" y="109" type="curve"/>
      <point x="115" y="109" type="line"/>
      <point x="122" y="136" type="line"/>
    </contour>
  </outline>
</glyph>
<glyph name="knAU" format="1">
  <advance width="648"/>
  <unicode hex="0C94"/>
  <outline>
    <contour>
      <point x="593" y="159"/>
      <point x="569" y="190"/>
      <point x="542" y="216" type="curve"/>
      <point x="520" y="201" type="line"/>
      <point x="539" y="180"/>
      <point x="549" y="158"/>
      <point x="549" y="134" type="curve"/>
      <point x="562" y="109" type="line"/>
      <point x="593" y="109" type="line"/>
    </contour>
    <contour>
      <point x="362" y="420"/>
      <point x="380" y="433"/>
      <point x="395" y="433" type="curve" smooth="yes"/>
      <point x="399" y="433"/>
      <point x="400" y="432"/>
      <point x="400" y="427" type="curve" smooth="yes"/>
      <point x="400" y="401"/>
      <point x="415" y="383"/>
      <point x="439" y="383" type="curve" smooth="yes"/>
      <point x="463" y="383"/>
      <point x="481" y="403"/>
      <point x="481" y="428" type="curve" smooth="yes"/>
      <point x="481" y="451"/>
      <point x="460" y="477"/>
      <point x="422" y="477" type="curve" smooth="yes"/>
      <point x="370" y="477"/>
      <point x="323" y="431"/>
      <point x="323" y="363" type="curve"/>
      <point x="323" y="295"/>
      <point x="380" y="248"/>
      <point x="444" y="248" type="curve" smooth="yes"/>
      <point x="519" y="248"/>
      <point x="573" y="315"/>
      <point x="573" y="404" type="curve" smooth="yes"/>
      <point x="573" y="522"/>
      <point x="493" y="605"/>
      <point x="363" y="605" type="curve" smooth="yes"/>
      <point x="59" y="605" type="line"/>
      <point x="59" y="543" type="line"/>
      <point x="256" y="543" type="line"/>
      <point x="257" y="540"/>
      <point x="258" y="536"/>
      <point x="258" y="532" type="curve" smooth="yes"/>
      <point x="258" y="519"/>
      <point x="251" y="501"/>
      <point x="227" y="501" type="curve" smooth="yes"/>
      <point x="59" y="501" type="line"/>
      <point x="59" y="440" type="line"/>
      <point x="193" y="440" type="line"/>
      <point x="211" y="440" type="line"/>
      <point x="258" y="440"/>
      <point x="293" y="469"/>
      <point x="293" y="508" type="curve" smooth="yes"/>
      <point x="293" y="519"/>
      <point x="290" y="531"/>
      <point x="284" y="543" type="curve"/>
      <point x="363" y="543" type="line" smooth="yes"/>
      <point x="474" y="543"/>
      <point x="539" y="486"/>
      <point x="539" y="404" type="curve" smooth="yes"/>
      <point x="539" y="345"/>
      <point x="501" y="302"/>
      <point x="444" y="302" type="curve" smooth="yes"/>
      <point x="398" y="302"/>
      <point x="362" y="334"/>
      <point x="362" y="386" type="curve"/>
    </contour>
    <contour>
      <point x="575" y="134" type="line"/>
      <point x="549" y="134" type="line"/>
      <point x="549" y="101"/>
      <point x="521" y="79"/>
      <point x="479" y="79" type="curve" smooth="yes"/>
      <point x="415" y="79"/>
      <point x="358" y="127"/>
      <point x="347" y="192" type="curve"/>
      <point x="339" y="192" type="line"/>
      <point x="327" y="126"/>
      <point x="270" y="79"/>
      <point x="207" y="79" type="curve" smooth="yes"/>
      <point x="161" y="79"/>
      <point x="137" y="99"/>
      <point x="137" y="136" type="curve"/>
      <point x="107" y="136" type="line"/>
      <point x="93" y="109" type="line"/>
      <point x="93" y="33"/>
      <point x="146" y="-14"/>
      <point x="204" y="-14" type="curve" smooth="yes"/>
      <point x="263" y="-14"/>
      <point x="322" y="37"/>
      <point x="342" y="110" type="curve"/>
      <point x="344" y="110" type="line"/>
      <point x="364" y="37"/>
      <point x="423" y="-14"/>
      <point x="482" y="-14" type="curve" smooth="yes"/>
      <point x="540" y="-14"/>
      <point x="593" y="33"/>
      <point x="593" y="109" type="curve"/>
    </contour>
    <contour>
      <point x="137" y="163"/>
      <point x="163" y="189"/>
      <point x="191" y="218" type="curve" smooth="yes"/>
      <point x="226" y="254"/>
      <point x="265" y="294"/>
      <point x="265" y="345" type="curve" smooth="yes"/>
      <point x="265" y="410"/>
      <point x="214" y="450"/>
      <point x="157" y="450" type="curve" smooth="yes"/>
      <point x="107" y="450"/>
      <point x="55" y="420"/>
      <point x="55" y="360" type="curve" smooth="yes"/>
      <point x="55" y="332"/>
      <point x="65" y="304"/>
      <point x="83" y="285" type="curve"/>
      <point x="110" y="303" type="line"/>
      <point x="103" y="316"/>
      <point x="101" y="326"/>
      <point x="101" y="336" type="curve" smooth="yes"/>
      <point x="101" y="368"/>
      <point x="123" y="391"/>
      <point x="157" y="391" type="curve" smooth="yes"/>
      <point x="189" y="391"/>
      <point x="219" y="370"/>
      <point x="219" y="333" type="curve" smooth="yes"/>
      <point x="219" y="297"/>
      <point x="192" y="269"/>
      <point x="164" y="240" type="curve" smooth="yes"/>
      <point x="130" y="205"/>
      <point x="93" y="168"/>
      <point x="93" y="109" type="curve"/>
      <point x="130" y="109" type="line"/>
      <point x="137" y="136" type="line"/>
    </contour>
  </outline>
</glyph>
<glyph name="knKHA" format="1">
  <advance width="728"/>
  <unicode hex="0C96"/>
  <outline>
    <contour>
      <point x="337" y="79"/>
      <point x="296" y="198"/>
      <point x="179" y="198" type="curve" smooth="yes"/>
      <point x="87" y="198"/>
      <point x="40" y="148"/>
      <point x="40" y="94" type="curve"/>
      <point x="40" y="33"/>
      <point x="100" y="-14"/>
      <point x="174" y="-14" type="curve" smooth="yes"/>
      <point x="308" y="-14"/>
      <point x="385" y="146"/>
      <point x="385" y="242" type="curve"/>
      <point x="385" y="386"/>
      <point x="316" y="451"/>
      <point x="230" y="451" type="curve" smooth="yes"/>
      <point x="177" y="451"/>
      <point x="133" y="407"/>
      <point x="133" y="353" type="curve"/>
      <point x="133" y="306"/>
      <point x="159" y="260"/>
      <point x="211" y="260" type="curve" smooth="yes"/>
      <point x="249" y="260"/>
      <point x="270" y="286"/>
      <point x="270" y="309" type="curve" smooth="yes"/>
      <point x="270" y="334"/>
      <point x="252" y="354"/>
      <point x="228" y="354" type="curve" smooth="yes"/>
      <point x="204" y="354"/>
      <point x="189" y="336"/>
      <point x="189" y="310" type="curve" smooth="yes"/>
      <point x="189" y="305"/>
      <point x="188" y="304"/>
      <point x="186" y="304" type="curve" smooth="yes"/>
      <point x="175" y="304"/>
      <point x="169" y="324"/>
      <point x="169" y="338" type="curve"/>
      <point x="169" y="370"/>
      <point x="199" y="395"/>
      <point x="236" y="395" type="curve" smooth="yes"/>
      <point x="298" y="395"/>
      <point x="349" y="344"/>
      <point x="349" y="249" type="curve"/>
      <point x="349" y="137"/>
      <point x="289" y="79"/>
      <point x="179" y="79" type="curve" smooth="yes"/>
      <point x="124" y="79"/>
      <point x="102" y="93"/>
      <point x="102" y="118" type="curve"/>
      <point x="102" y="144"/>
      <point x="129" y="167"/>
      <point x="179" y="167" type="curve" smooth="yes"/>
      <point x="306" y="167"/>
      <point x="329" y="-14"/>
      <point x="465" y="-14" type="curve" smooth="yes"/>
      <point x="604" y="-14"/>
      <point x="674" y="108"/>
      <point x="674" y="244" type="curve"/>
      <point x="674" y="360"/>
      <point x="597" y="445"/>
      <point x="542" y="445" type="curve" smooth="yes"/>
      <point x="511" y="445"/>
      <point x="494" y="428"/>
      <point x="494" y="408" type="curve" smooth="yes"/>
      <point x="494" y="391"/>
      <point x="504" y="377"/>
      <point x="518" y="373" type="curve" smooth="yes"/>
      <point x="538" y="367"/>
      <point x="556" y="371"/>
      <point x="577" y="364" type="curve" smooth="yes"/>
      <point x="609" y="353"/>
      <point x="633" y="316"/>
      <point x="633" y="253" type="curve"/>
      <point x="633" y="152"/>
      <point x="569" y="79"/>
      <point x="467" y="79" type="curve" smooth="yes"/>
    </contour>
  </outline>
</glyph>
<glyph name="knNGA" format="1">
  <advance width="628"/>
  <unicode hex="0C99"/>
  <outline>
    <contour>
      <point x="524" y="180"/>
      <point x="534" y="158"/>
      <point x="534" y="134" type="curve"/>
      <point x="547" y="109" type="line"/>
      <point x="578" y="109" type="line"/>
      <point x="578" y="159"/>
      <point x="554" y="190"/>
      <point x="527" y="216" type="curve"/>
      <point x="505" y="201" type="line"/>
    </contour>
    <contour>
      <point x="310" y="321"/>
      <point x="330" y="342"/>
      <point x="356" y="342" type="curve" smooth="yes"/>
      <point x="382" y="342"/>
      <point x="402" y="321"/>
      <point x="402" y="295" type="curve" smooth="yes"/>
      <point x="402" y="270"/>
      <point x="382" y="249"/>
      <point x="356" y="249" type="curve" smooth="yes"/>
      <point x="330" y="249"/>
      <point x="310" y="270"/>
      <point x="310" y="295" type="curve" smooth="yes"/>
    </contour>
    <component base="bum" xOffset="4"/>
    <component base="wing" xOffset="4"/>
    <component base="swan" xOffset="4"/>
  </outline>
</glyph>
<glyph name="knJA" format="1">
  <advance width="628"/>
  <unicode hex="0C9C"/>
  <outline>
    <contour>
      <point x="578" y="159"/>
      <point x="554" y="190"/>
      <point x="527" y="216" type="curve"/>
      <point x="505" y="201" type="line"/>
      <point x="524" y="180"/>
      <point x="534" y="158"/>
      <point x="534" y="134" type="curve"/>
      <point x="547" y="109" type="line"/>
      <point x="578" y="109" type="line"/>
    </contour>
    <contour>
      <point x="517" y="248"/>
      <point x="563" y="303"/>
      <point x="563" y="374" type="curve" smooth="yes"/>
      <point x="563" y="413"/>
      <point x="543" y="442"/>
      <point x="511" y="464" type="curve"/>
      <point x="495" y="450" type="line"/>
      <point x="517" y="433"/>
      <point x="525" y="416"/>
      <point x="525" y="391" type="curve" smooth="yes"/>
      <point x="525" y="343"/>
      <point x="484" y="308"/>
      <point x="419" y="308" type="curve" smooth="yes"/>
      <point x="356" y="308"/>
      <point x="291" y="355"/>
      <point x="223" y="416" type="curve"/>
      <point x="192" y="413" type="line"/>
      <point x="258" y="343"/>
      <point x="330" y="248"/>
      <point x="437" y="248" type="curve" smooth="yes"/>
    </contour>
    <component base="bum" xOffset="4"/>
    <component base="swan" xOffset="4"/>
  </outline>
</glyph>
<glyph name="knJHA" format="1">
  <advance width="1070"/>
  <unicode hex="0C9D"/>
  <outline>
    <contour>
      <point x="721" y="349"/>
      <point x="642" y="445"/>
      <point x="577" y="445" type="curve" smooth="yes"/>
      <point x="546" y="445"/>
      <point x="529" y="428"/>
      <point x="529" y="408" type="curve" smooth="yes"/>
      <point x="529" y="393"/>
      <point x="538" y="380"/>
      <point x="550" y="374" type="curve" smooth="yes"/>
      <point x="563" y="367"/>
      <point x="584" y="367"/>
      <point x="611" y="358" type="curve" smooth="yes"/>
      <point x="644" y="347"/>
      <point x="685" y="292"/>
      <point x="685" y="223" type="curve"/>
      <point x="685" y="136"/>
      <point x="625" y="79"/>
      <point x="551" y="79" type="curve"/>
      <point x="492" y="79"/>
      <point x="432" y="124"/>
      <point x="415" y="163" type="curve"/>
      <point x="394" y="102" type="line"/>
      <point x="422" y="52"/>
      <point x="496" y="-14"/>
      <point x="561" y="-14" type="curve"/>
      <point x="670" y="-14"/>
      <point x="721" y="93"/>
      <point x="721" y="223" type="curve"/>
    </contour>
    <contour>
      <point x="1015" y="339"/>
      <point x="936" y="445"/>
      <point x="861" y="445" type="curve" smooth="yes"/>
      <point x="830" y="445"/>
      <point x="813" y="428"/>
      <point x="813" y="408" type="curve" smooth="yes"/>
      <point x="813" y="393"/>
      <point x="822" y="380"/>
      <point x="834" y="374" type="curve" smooth="yes"/>
      <point x="847" y="367"/>
      <point x="867" y="371"/>
      <point x="895" y="365" type="curve" smooth="yes"/>
      <point x="948" y="354"/>
      <point x="979" y="286"/>
      <point x="979" y="213" type="curve"/>
      <point x="979" y="136"/>
      <point x="919" y="79"/>
      <point x="845" y="79" type="curve"/>
      <point x="786" y="79"/>
      <point x="726" y="124"/>
      <point x="709" y="163" type="curve"/>
      <point x="688" y="102" type="line"/>
      <point x="716" y="52"/>
      <point x="790" y="-14"/>
      <point x="855" y="-14" type="curve"/>
      <point x="964" y="-14"/>
      <point x="1015" y="93"/>
      <point x="1015" y="203" type="curve"/>
    </contour>
    <contour>
      <point x="758" y="-80"/>
      <point x="721" y="-31"/>
      <point x="710" y="38" type="curve"/>
      <point x="694" y="38" type="line"/>
      <point x="684" y="-31"/>
      <point x="646" y="-80"/>
      <point x="646" y="-116" type="curve" smooth="yes"/>
      <point x="646" y="-158"/>
      <point x="679" y="-176"/>
      <point x="702" y="-176" type="curve"/>
      <point x="723" y="-176"/>
      <point x="758" y="-162"/>
      <point x="758" y="-116" type="curve" smooth="yes"/>
    </contour>
    <contour>
      <point x="330" y="375"/>
      <point x="395" y="311"/>
      <point x="395" y="225" type="curve" smooth="yes"/>
      <point x="395" y="138"/>
      <point x="330" y="76"/>
      <point x="242" y="76" type="curve"/>
      <point x="154" y="76"/>
      <point x="89" y="138"/>
      <point x="89" y="225" type="curve" smooth="yes"/>
      <point x="89" y="311"/>
      <point x="154" y="375"/>
      <point x="242" y="375" type="curve"/>
    </contour>
    <contour>
      <point x="371" y="557" type="line"/>
      <point x="395" y="542"/>
      <point x="403" y="520"/>
      <point x="403" y="501" type="curve" smooth="yes"/>
      <point x="403" y="465"/>
      <point x="376" y="440"/>
      <point x="331" y="440" type="curve" smooth="yes"/>
      <point x="42" y="440" type="line"/>
      <point x="42" y="368" type="line"/>
      <point x="184" y="368" type="line"/>
      <point x="242" y="384" type="line"/>
      <point x="298" y="368" type="line"/>
      <point x="331" y="368" type="line" smooth="yes"/>
      <point x="400" y="368"/>
      <point x="449" y="416"/>
      <point x="449" y="476" type="curve" smooth="yes"/>
      <point x="449" y="515"/>
      <point x="429" y="551"/>
      <point x="384" y="575" type="curve"/>
    </contour>
    <contour>
      <point x="206" y="399"/>
      <point x="174" y="388"/>
      <point x="146" y="373" type="curve" smooth="yes"/>
      <point x="82" y="340"/>
      <point x="42" y="275"/>
      <point x="42" y="198" type="curve" smooth="yes"/>
      <point x="42" y="84"/>
      <point x="131" y="-14"/>
      <point x="242" y="-14" type="curve"/>
      <point x="353" y="-14"/>
      <point x="442" y="84"/>
      <point x="442" y="198" type="curve" smooth="yes"/>
      <point x="442" y="275"/>
      <point x="402" y="340"/>
      <point x="338" y="373" type="curve" smooth="yes"/>
      <point x="310" y="388"/>
      <point x="278" y="399"/>
      <point x="242" y="399" type="curve"/>
    </contour>
  </outline>
</glyph>
<glyph name="knTA" format="1">
  <advance width="527"/>
  <unicode hex="0CA4"/>
  <outline>
    <contour>
      <point x="320" y="372"/>
      <point x="364" y="341"/>
      <point x="364" y="292" type="curve" smooth="yes"/>
      <point x="364" y="241"/>
      <point x="327" y="213"/>
      <point x="279" y="213" type="curve" smooth="yes"/>
      <point x="237" y="213"/>
      <point x="211" y="229"/>
      <point x="211" y="254" type="curve" smooth="yes"/>
      <point x="211" y="281"/>
      <point x="244" y="297"/>
      <point x="296" y="297" type="curve" smooth="yes"/>
      <point x="365" y="297"/>
      <point x="437" y="262"/>
      <point x="437" y="192" type="curve" smooth="yes"/>
      <point x="437" y="122"/>
      <point x="358" y="79"/>
      <point x="273" y="79" type="curve" smooth="yes"/>
      <point x="176" y="79"/>
      <point x="94" y="125"/>
      <point x="94" y="183" type="curve" smooth="yes"/>
      <point x="94" y="202"/>
      <point x="100" y="214"/>
      <point x="106" y="219" type="curve"/>
      <point x="83" y="223" type="line"/>
      <point x="68" y="209"/>
      <point x="55" y="185"/>
      <point x="55" y="150" type="curve" smooth="yes"/>
      <point x="55" y="65"/>
      <point x="152" y="-14"/>
      <point x="269" y="-14" type="curve" smooth="yes"/>
      <point x="386" y="-14"/>
      <point x="477" y="81"/>
      <point x="477" y="173" type="curve" smooth="yes"/>
      <point x="477" y="275"/>
      <point x="382" y="329"/>
      <point x="288" y="329" type="curve" smooth="yes"/>
      <point x="204" y="329"/>
      <point x="163" y="296"/>
      <point x="163" y="248" type="curve" smooth="yes"/>
      <point x="163" y="198"/>
      <point x="213" y="164"/>
      <point x="274" y="164" type="curve" smooth="yes"/>
      <point x="344" y="164"/>
      <point x="403" y="209"/>
      <point x="403" y="278" type="curve" smooth="yes"/>
      <point x="403" y="331"/>
      <point x="362" y="370"/>
      <point x="329" y="380" type="curve"/>
      <point x="273" y="372" type="line"/>
    </contour>
    <contour>
      <point x="389" y="557" type="line"/>
      <point x="413" y="542"/>
      <point x="421" y="520"/>
      <point x="421" y="501" type="curve" smooth="yes"/>
      <point x="421" y="465"/>
      <point x="394" y="440"/>
      <point x="349" y="440" type="curve" smooth="yes"/>
      <point x="70" y="440" type="line"/>
      <point x="70" y="368" type="line"/>
      <point x="349" y="368" type="line"/>
      <point x="418" y="368"/>
      <point x="467" y="416"/>
      <point x="467" y="476" type="curve" smooth="yes"/>
      <point x="467" y="515"/>
      <point x="447" y="551"/>
      <point x="402" y="575" type="curve"/>
    </contour>
  </outline>
</glyph>
<glyph name="knPA" format="1">
  <advance width="644"/>
  <unicode hex="0CAA"/>
  <outline>
    <contour>
      <point x="280" y="324"/>
      <point x="303" y="347"/>
      <point x="332" y="347" type="curve" smooth="yes"/>
      <point x="361" y="347"/>
      <point x="383" y="324"/>
      <point x="383" y="296" type="curve" smooth="yes"/>
      <point x="383" y="267"/>
      <point x="361" y="244"/>
      <point x="332" y="244" type="curve" smooth="yes"/>
      <point x="303" y="244"/>
      <point x="280" y="267"/>
      <point x="280" y="296" type="curve" smooth="yes"/>
    </contour>
    <contour>
      <point x="494" y="557" type="line"/>
      <point x="518" y="542"/>
      <point x="526" y="520"/>
      <point x="526" y="501" type="curve" smooth="yes"/>
      <point x="526" y="465"/>
      <point x="499" y="440"/>
      <point x="454" y="440" type="curve" smooth="yes"/>
      <point x="75" y="440" type="line"/>
      <point x="75" y="368" type="line"/>
      <point x="454" y="368" type="line"/>
      <point x="523" y="368"/>
      <point x="572" y="416"/>
      <point x="572" y="476" type="curve" smooth="yes"/>
      <point x="572" y="515"/>
      <point x="552" y="551"/>
      <point x="507" y="575" type="curve"/>
    </contour>
    <contour>
      <point x="483" y="324"/>
      <point x="498" y="339"/>
      <point x="519" y="339" type="curve" smooth="yes"/>
      <point x="565" y="339"/>
      <point x="584" y="234"/>
      <point x="584" y="154" type="curve" smooth="yes"/>
      <point x="584" y="71"/>
      <point x="552" y="-14"/>
      <point x="469" y="-14" type="curve"/>
      <point x="410" y="-14"/>
      <point x="351" y="37"/>
      <point x="331" y="110" type="curve"/>
      <point x="329" y="110" type="line"/>
      <point x="309" y="37"/>
      <point x="249" y="-14"/>
      <point x="186" y="-14" type="curve"/>
      <point x="116" y="-14"/>
      <point x="76" y="47"/>
      <point x="76" y="123" type="curve" smooth="yes"/>
      <point x="76" y="200"/>
      <point x="113" y="248"/>
      <point x="165" y="248" type="curve" smooth="yes"/>
      <point x="207" y="248"/>
      <point x="228" y="216"/>
      <point x="239" y="179" type="curve"/>
      <point x="225" y="166" type="line"/>
      <point x="216" y="187"/>
      <point x="194" y="196"/>
      <point x="168" y="196" type="curve" smooth="yes"/>
      <point x="136" y="196"/>
      <point x="113" y="175"/>
      <point x="113" y="143" type="curve" smooth="yes"/>
      <point x="113" y="108"/>
      <point x="139" y="79"/>
      <point x="190" y="79" type="curve"/>
      <point x="256" y="79"/>
      <point x="314" y="126"/>
      <point x="326" y="192" type="curve"/>
      <point x="334" y="192" type="line"/>
      <point x="345" y="127"/>
      <point x="402" y="79"/>
      <point x="466" y="79" type="curve"/>
      <point x="526" y="79"/>
      <point x="551" y="121"/>
      <point x="551" y="174" type="curve" smooth="yes"/>
      <point x="551" y="293"/>
      <point x="483" y="263"/>
      <point x="483" y="304" type="curve" smooth="yes"/>
    </contour>
  </outline>
</glyph>
<glyph name="knBHA" format="1">
  <advance width="679"/>
  <unicode hex="0CAD"/>
  <outline>
    <contour>
      <point x="517" y="557" type="line"/>
      <point x="541" y="542"/>
      <point x="549" y="520"/>
      <point x="549" y="501" type="curve" smooth="yes"/>
      <point x="549" y="465"/>
      <point x="522" y="440"/>
      <point x="477" y="440" type="curve" smooth="yes"/>
      <point x="348" y="440" type="line"/>
      <point x="348" y="368" type="line"/>
      <point x="477" y="368" type="line"/>
      <point x="546" y="368"/>
      <point x="595" y="416"/>
      <point x="595" y="476" type="curve" smooth="yes"/>
      <point x="595" y="515"/>
      <point x="575" y="551"/>
      <point x="530" y="575" type="curve"/>
    </contour>
    <contour>
      <point x="619" y="339"/>
      <point x="490" y="410"/>
      <point x="415" y="410" type="curve" smooth="yes"/>
      <point x="351" y="410"/>
      <point x="389" y="368"/>
      <point x="449" y="368" type="curve" smooth="yes"/>
      <point x="502" y="368"/>
      <point x="583" y="306"/>
      <point x="583" y="204" type="curve" smooth="yes"/>
      <point x="583" y="144"/>
      <point x="549" y="79"/>
      <point x="461" y="79" type="curve" smooth="yes"/>
      <point x="401" y="79"/>
      <point x="343" y="127"/>
      <point x="332" y="192" type="curve"/>
      <point x="324" y="192" type="line"/>
      <point x="312" y="126"/>
      <point x="255" y="79"/>
      <point x="192" y="79" type="curve" smooth="yes"/>
      <point x="146" y="79"/>
      <point x="122" y="99"/>
      <point x="122" y="136" type="curve"/>
      <point x="92" y="136" type="line"/>
      <point x="78" y="109" type="line"/>
      <point x="78" y="33"/>
      <point x="131" y="-14"/>
      <point x="189" y="-14" type="curve" smooth="yes"/>
      <point x="248" y="-14"/>
      <point x="307" y="37"/>
      <point x="327" y="110" type="curve"/>
      <point x="329" y="110" type="line"/>
      <point x="349" y="37"/>
      <point x="408" y="-14"/>
      <point x="471" y="-14" type="curve" smooth="yes"/>
      <point x="563" y="-14"/>
      <point x="619" y="66"/>
      <point x="619" y="193" type="curve" smooth="yes"/>
    </contour>
    <contour>
      <point x="122" y="163"/>
      <point x="148" y="189"/>
      <point x="176" y="218" type="curve" smooth="yes"/>
      <point x="211" y="254"/>
      <point x="250" y="294"/>
      <point x="250" y="345" type="curve" smooth="yes"/>
      <point x="250" y="410"/>
      <point x="199" y="450"/>
      <point x="142" y="450" type="curve" smooth="yes"/>
      <point x="92" y="450"/>
      <point x="40" y="420"/>
      <point x="40" y="360" type="curve" smooth="yes"/>
      <point x="40" y="332"/>
      <point x="50" y="304"/>
      <point x="68" y="285" type="curve"/>
      <point x="95" y="303" type="line"/>
      <point x="88" y="316"/>
      <point x="86" y="326"/>
      <point x="86" y="336" type="curve" smooth="yes"/>
      <point x="86" y="368"/>
      <point x="108" y="391"/>
      <point x="142" y="391" type="curve" smooth="yes"/>
      <point x="174" y="391"/>
      <point x="204" y="370"/>
      <point x="204" y="333" type="curve" smooth="yes"/>
      <point x="204" y="297"/>
      <point x="177" y="269"/>
      <point x="149" y="240" type="curve" smooth="yes"/>
      <point x="115" y="205"/>
      <point x="78" y="168"/>
      <point x="78" y="109" type="curve"/>
      <point x="115" y="109" type="line"/>
      <point x="122" y="136" type="line"/>
    </contour>
  </outline>
</glyph>
<glyph name="knMA" format="1">
  <advance width="914"/>
  <unicode hex="0CAE"/>
  <outline>
    <contour>
      <point x="325" y="368" type="line"/>
      <point x="440" y="368"/>
      <point x="533" y="261"/>
      <point x="533" y="167" type="curve" smooth="yes"/>
      <point x="533" y="108"/>
      <point x="505" y="79"/>
      <point x="455" y="79" type="curve" smooth="yes"/>
      <point x="398" y="79"/>
      <point x="345" y="127"/>
      <point x="334" y="192" type="curve"/>
      <point x="326" y="192" type="line"/>
      <point x="314" y="126"/>
      <point x="257" y="79"/>
      <point x="192" y="79" type="curve"/>
      <point x="138" y="79"/>
      <point x="113" y="108"/>
      <point x="113" y="143" type="curve" smooth="yes"/>
      <point x="113" y="175"/>
      <point x="135" y="196"/>
      <point x="167" y="196" type="curve" smooth="yes"/>
      <point x="193" y="196"/>
      <point x="216" y="187"/>
      <point x="225" y="166" type="curve"/>
      <point x="239" y="179" type="line"/>
      <point x="228" y="216"/>
      <point x="206" y="248"/>
      <point x="164" y="248" type="curve"/>
      <point x="112" y="248"/>
      <point x="76" y="200"/>
      <point x="76" y="123" type="curve" smooth="yes"/>
      <point x="76" y="47"/>
      <point x="114" y="-14"/>
      <point x="187" y="-14" type="curve"/>
      <point x="249" y="-14"/>
      <point x="309" y="37"/>
      <point x="329" y="110" type="curve"/>
      <point x="331" y="110" type="line"/>
      <point x="351" y="37"/>
      <point x="410" y="-14"/>
      <point x="467" y="-14" type="curve" smooth="yes"/>
      <point x="522" y="-14"/>
      <point x="577" y="29"/>
      <point x="577" y="139" type="curve" smooth="yes"/>
      <point x="577" y="295"/>
      <point x="444" y="403"/>
      <point x="325" y="403" type="curve"/>
    </contour>
    <contour>
      <point x="496" y="557" type="line"/>
      <point x="520" y="542"/>
      <point x="528" y="520"/>
      <point x="528" y="501" type="curve" smooth="yes"/>
      <point x="528" y="465"/>
      <point x="501" y="440"/>
      <point x="456" y="440" type="curve" smooth="yes"/>
      <point x="75" y="440" type="line"/>
      <point x="75" y="368" type="line"/>
      <point x="234" y="368" type="line"/>
      <point x="324" y="368" type="line"/>
      <point x="414" y="368" type="line"/>
      <point x="456" y="368" type="line"/>
      <point x="525" y="368"/>
      <point x="574" y="416"/>
      <point x="574" y="476" type="curve" smooth="yes"/>
      <point x="574" y="515"/>
      <point x="554" y="551"/>
      <point x="509" y="575" type="curve"/>
    </contour>
    <contour>
      <point x="584" y="37"/>
      <point x="643" y="-14"/>
      <point x="706" y="-14" type="curve" smooth="yes"/>
      <point x="798" y="-14"/>
      <point x="854" y="66"/>
      <point x="854" y="193" type="curve" smooth="yes"/>
      <point x="854" y="339"/>
      <point x="755" y="445"/>
      <point x="680" y="445" type="curve" smooth="yes"/>
      <point x="649" y="445"/>
      <point x="632" y="428"/>
      <point x="632" y="408" type="curve" smooth="yes"/>
      <point x="632" y="393"/>
      <point x="641" y="380"/>
      <point x="653" y="374" type="curve" smooth="yes"/>
      <point x="666" y="367"/>
      <point x="686" y="370"/>
      <point x="714" y="365" type="curve" smooth="yes"/>
      <point x="777" y="354"/>
      <point x="818" y="293"/>
      <point x="818" y="204" type="curve" smooth="yes"/>
      <point x="818" y="144"/>
      <point x="784" y="79"/>
      <point x="696" y="79" type="curve" smooth="yes"/>
      <point x="636" y="79"/>
      <point x="578" y="127"/>
      <point x="567" y="192" type="curve"/>
      <point x="564" y="110" type="line"/>
    </contour>
  </outline>
</glyph>
<glyph name="knYA" format="1">
  <advance width="1070"/>
  <unicode hex="0CAF"/>
  <outline>
    <contour>
      <point x="672" y="557" type="line"/>
      <point x="696" y="542"/>
      <point x="704" y="520"/>
      <point x="704" y="501" type="curve" smooth="yes"/>
      <point x="704" y="465"/>
      <point x="677" y="440"/>
      <point x="632" y="440" type="curve" smooth="yes"/>
      <point x="464" y="440" type="line"/>
      <point x="464" y="368" type="line"/>
      <point x="632" y="368" type="line" smooth="yes"/>
      <point x="701" y="368"/>
      <point x="750" y="416"/>
      <point x="750" y="476" type="curve" smooth="yes"/>
      <point x="750" y="515"/>
      <point x="730" y="551"/>
      <point x="685" y="575" type="curve"/>
    </contour>
    <contour>
      <point x="721" y="339"/>
      <point x="622" y="440"/>
      <point x="547" y="440" type="curve" smooth="yes"/>
      <point x="516" y="440"/>
      <point x="499" y="423"/>
      <point x="499" y="403" type="curve" smooth="yes"/>
      <point x="499" y="383"/>
      <point x="509" y="368"/>
      <point x="535" y="368" type="curve"/>
      <point x="621" y="368"/>
      <point x="685" y="292"/>
      <point x="685" y="213" type="curve" smooth="yes"/>
      <point x="685" y="136"/>
      <point x="625" y="79"/>
      <point x="551" y="79" type="curve"/>
      <point x="492" y="79"/>
      <point x="432" y="124"/>
      <point x="415" y="163" type="curve"/>
      <point x="394" y="102" type="line"/>
      <point x="422" y="52"/>
      <point x="496" y="-14"/>
      <point x="561" y="-14" type="curve"/>
      <point x="670" y="-14"/>
      <point x="721" y="93"/>
      <point x="721" y="203" type="curve" smooth="yes"/>
    </contour>
    <contour>
      <point x="1015" y="339"/>
      <point x="936" y="445"/>
      <point x="861" y="445" type="curve" smooth="yes"/>
      <point x="830" y="445"/>
      <point x="813" y="428"/>
      <point x="813" y="408" type="curve" smooth="yes"/>
      <point x="813" y="393"/>
      <point x="822" y="380"/>
      <point x="834" y="374" type="curve" smooth="yes"/>
      <point x="847" y="367"/>
      <point x="867" y="371"/>
      <point x="895" y="365" type="curve" smooth="yes"/>
      <point x="948" y="354"/>
      <point x="979" y="286"/>
      <point x="979" y="213" type="curve"/>
      <point x="979" y="136"/>
      <point x="919" y="79"/>
      <point x="845" y="79" type="curve"/>
      <point x="786" y="79"/>
      <point x="726" y="124"/>
      <point x="709" y="163" type="curve"/>
      <point x="688" y="102" type="line"/>
      <point x="716" y="52"/>
      <point x="790" y="-14"/>
      <point x="855" y="-14" type="curve"/>
      <point x="964" y="-14"/>
      <point x="1015" y="93"/>
      <point x="1015" y="203" type="curve"/>
    </contour>
    <contour>
      <point x="121" y="450"/>
      <point x="42" y="348"/>
      <point x="42" y="216" type="curve" smooth="yes"/>
      <point x="42" y="84"/>
      <point x="121" y="-14"/>
      <point x="242" y="-14" type="curve"/>
      <point x="363" y="-14"/>
      <point x="442" y="84"/>
      <point x="442" y="216" type="curve" smooth="yes"/>
      <point x="442" y="348"/>
      <point x="363" y="450"/>
      <point x="242" y="450" type="curve" smooth="yes"/>
    </contour>
    <contour>
      <point x="330" y="375"/>
      <point x="395" y="308"/>
      <point x="395" y="225" type="curve" smooth="yes"/>
      <point x="395" y="138"/>
      <point x="330" y="76"/>
      <point x="242" y="76" type="curve"/>
      <point x="154" y="76"/>
      <point x="89" y="138"/>
      <point x="89" y="225" type="curve" smooth="yes"/>
      <point x="89" y="308"/>
      <point x="154" y="375"/>
      <point x="242" y="375" type="curve" smooth="yes"/>
    </contour>
  </outline>
</glyph>
<glyph name="knVA" format="1">
  <advance width="642"/>
  <unicode hex="0CB5"/>
  <outline>
    <contour>
      <point x="325" y="368" type="line"/>
      <point x="440" y="368"/>
      <point x="533" y="261"/>
      <point x="533" y="167" type="curve" smooth="yes"/>
      <point x="533" y="108"/>
      <point x="505" y="79"/>
      <point x="455" y="79" type="curve" smooth="yes"/>
      <point x="398" y="79"/>
      <point x="345" y="127"/>
      <point x="334" y="192" type="curve"/>
      <point x="326" y="192" type="line"/>
      <point x="314" y="126"/>
      <point x="257" y="79"/>
      <point x="192" y="79" type="curve"/>
      <point x="138" y="79"/>
      <point x="113" y="108"/>
      <point x="113" y="143" type="curve" smooth="yes"/>
      <point x="113" y="175"/>
      <point x="135" y="196"/>
      <point x="167" y="196" type="curve" smooth="yes"/>
      <point x="193" y="196"/>
      <point x="216" y="187"/>
      <point x="225" y="166" type="curve"/>
      <point x="239" y="179" type="line"/>
      <point x="228" y="216"/>
      <point x="206" y="248"/>
      <point x="164" y="248" type="curve"/>
      <point x="112" y="248"/>
      <point x="76" y="200"/>
      <point x="76" y="123" type="curve" smooth="yes"/>
      <point x="76" y="47"/>
      <point x="114" y="-14"/>
      <point x="187" y="-14" type="curve"/>
      <point x="249" y="-14"/>
      <point x="309" y="37"/>
      <point x="329" y="110" type="curve"/>
      <point x="331" y="110" type="line"/>
      <point x="351" y="37"/>
      <point x="410" y="-14"/>
      <point x="467" y="-14" type="curve" smooth="yes"/>
      <point x="522" y="-14"/>
      <point x="577" y="29"/>
      <point x="577" y="139" type="curve" smooth="yes"/>
      <point x="577" y="295"/>
      <point x="444" y="403"/>
      <point x="325" y="403" type="curve"/>
    </contour>
    <contour>
      <point x="496" y="557" type="line"/>
      <point x="520" y="542"/>
      <point x="528" y="520"/>
      <point x="528" y="501" type="curve" smooth="yes"/>
      <point x="528" y="465"/>
      <point x="501" y="440"/>
      <point x="456" y="440" type="curve" smooth="yes"/>
      <point x="75" y="440" type="line"/>
      <point x="75" y="368" type="line"/>
      <point x="234" y="368" type="line"/>
      <point x="324" y="368" type="line"/>
      <point x="414" y="368" type="line"/>
      <point x="456" y="368" type="line"/>
      <point x="525" y="368"/>
      <point x="574" y="416"/>
      <point x="574" y="476" type="curve" smooth="yes"/>
      <point x="574" y="515"/>
      <point x="554" y="551"/>
      <point x="509" y="575" type="curve"/>
    </contour>
  </outline>
</glyph>
<glyph name="knSHA" format="1">
  <advance width="521"/>
  <unicode hex="0CB6"/>
  <outline>
    <contour>
      <point x="371" y="557" type="line"/>
      <point x="395" y="542"/>
      <point x="403" y="520"/>
      <point x="403" y="501" type="curve" smooth="yes"/>
      <point x="403" y="465"/>
      <point x="376" y="440"/>
      <point x="331" y="440" type="curve" smooth="yes"/>
      <point x="42" y="440" type="line"/>
      <point x="42" y="368" type="line"/>
      <point x="331" y="368" type="line"/>
      <point x="400" y="368"/>
      <point x="449" y="416"/>
      <point x="449" y="476" type="curve" smooth="yes"/>
      <point x="449" y="515"/>
      <point x="429" y="551"/>
      <point x="384" y="575" type="curve"/>
    </contour>
    <contour>
      <point x="158" y="404"/>
      <point x="114" y="369"/>
      <point x="114" y="327" type="curve" smooth="yes"/>
      <point x="114" y="291"/>
      <point x="135" y="255"/>
      <point x="177" y="255" type="curve" smooth="yes"/>
      <point x="206" y="255"/>
      <point x="222" y="274"/>
      <point x="222" y="293" type="curve"/>
      <point x="222" y="312"/>
      <point x="208" y="328"/>
      <point x="189" y="328" type="curve"/>
      <point x="171" y="328"/>
      <point x="159" y="313"/>
      <point x="159" y="294" type="curve" smooth="yes"/>
      <point x="159" y="291"/>
      <point x="158" y="288"/>
      <point x="155" y="288" type="curve"/>
      <point x="147" y="288"/>
      <point x="144" y="304"/>
      <point x="144" y="315" type="curve"/>
      <point x="144" y="341"/>
      <point x="170" y="368"/>
      <point x="207" y="368" type="curve"/>
      <point x="244" y="368"/>
      <point x="277" y="333"/>
      <point x="277" y="287" type="curve" smooth="yes"/>
      <point x="277" y="239"/>
      <point x="247" y="219"/>
      <point x="203" y="219" type="curve"/>
      <point x="188" y="219"/>
      <point x="155" y="219"/>
      <point x="143" y="219" type="curve" smooth="yes"/>
      <point x="79" y="219"/>
      <point x="41" y="181"/>
      <point x="41" y="130" type="curve"/>
      <point x="41" y="51"/>
      <point x="105" y="-14"/>
      <point x="206" y="-14" type="curve" smooth="yes"/>
      <point x="337" y="-14"/>
      <point x="442" y="64"/>
      <point x="442" y="191" type="curve" smooth="yes"/>
      <point x="442" y="290"/>
      <point x="381" y="404"/>
      <point x="239" y="404" type="curve"/>
    </contour>
    <contour>
      <point x="315" y="370"/>
      <point x="388" y="312"/>
      <point x="388" y="225" type="curve"/>
      <point x="388" y="143"/>
      <point x="330" y="78"/>
      <point x="207" y="78" type="curve" smooth="yes"/>
      <point x="120" y="78"/>
      <point x="75" y="97"/>
      <point x="75" y="135" type="curve" smooth="yes"/>
      <point x="75" y="164"/>
      <point x="105" y="184"/>
      <point x="139" y="184" type="curve"/>
      <point x="203" y="184" type="line"/>
      <point x="262" y="184"/>
      <point x="313" y="229"/>
      <point x="313" y="285" type="curve"/>
      <point x="313" y="341"/>
      <point x="280" y="370"/>
      <point x="252" y="370" type="curve"/>
    </contour>
  </outline>
</glyph>
<glyph name="knAvagraha" format="1">
  <advance width="372"/>
  <unicode hex="0CBD"/>
  <outline>
    <contour>
      <point x="323" y="378" type="line"/>
      <point x="323" y="450" type="line"/>
      <point x="154" y="450" type="line" smooth="yes"/>
      <point x="86" y="450"/>
      <point x="47" y="404"/>
      <point x="47" y="357" type="curve" smooth="yes"/>
      <point x="47" y="329"/>
      <point x="52" y="306"/>
      <point x="69" y="286" type="curve" smooth="yes"/>
      <point x="123" y="223"/>
      <point x="284" y="197"/>
      <point x="284" y="129" type="curve" smooth="yes"/>
      <point x="284" y="99"/>
      <point x="256" y="79"/>
      <point x="205" y="79" type="curve" smooth="yes"/>
      <point x="134" y="79"/>
      <point x="88" y="108"/>
      <point x="65" y="153" type="curve"/>
      <point x="44" y="132" type="line"/>
      <point x="55" y="37"/>
      <point x="114" y="-14"/>
      <point x="193" y="-14" type="curve" smooth="yes"/>
      <point x="265" y="-14"/>
      <point x="328" y="33"/>
      <point x="328" y="109" type="curve" smooth="yes"/>
      <point x="328" y="245"/>
      <point x="92" y="249"/>
      <point x="92" y="331" type="curve" smooth="yes"/>
      <point x="92" y="356"/>
      <point x="111" y="378"/>
      <point x="156" y="378" type="curve" smooth="yes"/>
    </contour>
  </outline>
</glyph>
<glyph name="knmII" format="1">
  <advance width="256"/>
  <unicode hex="0CC0"/>
  <outline>
    <contour>
      <point x="-369" y="665"/>
      <point x="-400" y="629"/>
      <point x="-400" y="579" type="curve" smooth="yes"/>
      <point x="-400" y="519"/>
      <point x="-353" y="471"/>
      <point x="-297" y="471" type="curve" smooth="yes"/>
      <point x="-246" y="471"/>
      <point x="-227" y="509"/>
      <point x="-227" y="549" type="curve" smooth="yes"/>
      <point x="-227" y="556"/>
      <point x="-228" y="563"/>
      <point x="-229" y="569" type="curve"/>
      <point x="-211" y="550"/>
      <point x="-199" y="524"/>
      <point x="-199" y="492" type="curve" smooth="yes"/>
      <point x="-199" y="404"/>
      <point x="-299" y="381"/>
      <point x="-365" y="381" type="curve"/>
      <point x="-341" y="335" type="line"/>
      <point x="-216" y="342"/>
      <point x="-176" y="406"/>
      <point x="-176" y="493" type="curve" smooth="yes"/>
      <point x="-176" y="572"/>
      <point x="-236" y="665"/>
      <point x="-316" y="665" type="curve" smooth="yes"/>
    </contour>
    <contour>
      <point x="-348" y="501"/>
      <point x="-375" y="530"/>
      <point x="-375" y="562" type="curve" smooth="yes"/>
      <point x="-375" y="590"/>
      <point x="-357" y="613"/>
      <point x="-319" y="613" type="curve" smooth="yes"/>
      <point x="-309" y="613"/>
      <point x="-297" y="611"/>
      <point x="-285" y="607" type="curve"/>
      <point x="-274" y="592"/>
      <point x="-267" y="576"/>
      <point x="-267" y="556" type="curve" smooth="yes"/>
      <point x="-267" y="525"/>
      <point x="-274" y="501"/>
      <point x="-313" y="501" type="curve" smooth="yes"/>
    </contour>
    <contour>
      <point x="187" y="199"/>
      <point x="236" y="234"/>
      <point x="236" y="300" type="curve" smooth="yes"/>
      <point x="236" y="366"/>
      <point x="204" y="414"/>
      <point x="148" y="414" type="curve" smooth="yes"/>
      <point x="69" y="414"/>
      <point x="25" y="316"/>
      <point x="25" y="216" type="curve" smooth="yes"/>
      <point x="25" y="131"/>
      <point x="58" y="52"/>
      <point x="118" y="-12" type="curve"/>
      <point x="190" y="-12" type="line"/>
      <point x="105" y="62"/>
      <point x="56" y="140"/>
      <point x="56" y="209" type="curve" smooth="yes"/>
      <point x="56" y="270"/>
      <point x="72" y="314"/>
      <point x="101" y="337" type="curve"/>
      <point x="95" y="321"/>
      <point x="89" y="303"/>
      <point x="89" y="283" type="curve" smooth="yes"/>
      <point x="89" y="232"/>
      <point x="113" y="199"/>
      <point x="155" y="199" type="curve" smooth="yes"/>
    </contour>
    <contour>
      <point x="187" y="355"/>
      <point x="212" y="336"/>
      <point x="212" y="302" type="curve" smooth="yes"/>
      <point x="212" y="276"/>
      <point x="190" y="250"/>
      <point x="156" y="250" type="curve" smooth="yes"/>
      <point x="126" y="250"/>
      <point x="110" y="273"/>
      <point x="110" y="302" type="curve" smooth="yes"/>
      <point x="110" y="319"/>
      <point x="114" y="334"/>
      <point x="122" y="349" type="curve"/>
      <point x="132" y="353"/>
      <point x="143" y="355"/>
      <point x="154" y="355" type="curve" smooth="yes"/>
    </contour>
  </outline>
</glyph>
<glyph name="knmU" format="1">
  <advance width="265"/>
  <unicode hex="0CC1"/>
  <outline>
    <contour>
      <point x="-60" y="37"/>
      <point x="-1" y="-14"/>
      <point x="62" y="-14" type="curve" smooth="yes"/>
      <point x="154" y="-14"/>
      <point x="210" y="66"/>
      <point x="210" y="193" type="curve" smooth="yes"/>
      <point x="210" y="339"/>
      <point x="111" y="445"/>
      <point x="36" y="445" type="curve" smooth="yes"/>
      <point x="5" y="445"/>
      <point x="-12" y="428"/>
      <point x="-12" y="408" type="curve" smooth="yes"/>
      <point x="-12" y="393"/>
      <point x="-3" y="380"/>
      <point x="9" y="374" type="curve" smooth="yes"/>
      <point x="22" y="367"/>
      <point x="42" y="370"/>
      <point x="70" y="365" type="curve" smooth="yes"/>
      <point x="133" y="354"/>
      <point x="174" y="293"/>
      <point x="174" y="204" type="curve" smooth="yes"/>
      <point x="174" y="144"/>
      <point x="140" y="79"/>
      <point x="52" y="79" type="curve" smooth="yes"/>
      <point x="-8" y="79"/>
      <point x="-66" y="127"/>
      <point x="-77" y="192" type="curve"/>
      <point x="-80" y="110" type="line"/>
    </contour>
  </outline>
</glyph>
<glyph name="knmUU" format="1">
  <advance width="563"/>
  <unicode hex="0CC2"/>
  <outline>
    <contour>
      <point x="521" y="120"/>
      <point x="478" y="55"/>
      <point x="401" y="55" type="curve" smooth="yes"/>
      <point x="336" y="55"/>
      <point x="299" y="96"/>
      <point x="299" y="145" type="curve"/>
      <point x="299" y="182"/>
      <point x="307" y="204"/>
      <point x="318" y="204" type="curve" smooth="yes"/>
      <point x="322" y="204"/>
      <point x="323" y="200"/>
      <point x="323" y="196" type="curve" smooth="yes"/>
      <point x="323" y="164"/>
      <point x="342" y="142"/>
      <point x="371" y="142" type="curve" smooth="yes"/>
      <point x="401" y="142"/>
      <point x="423" y="167"/>
      <point x="423" y="198" type="curve" smooth="yes"/>
      <point x="423" y="226"/>
      <point x="401" y="258"/>
      <point x="355" y="258" type="curve" smooth="yes"/>
      <point x="286" y="258"/>
      <point x="254" y="201"/>
      <point x="254" y="133" type="curve"/>
      <point x="254" y="47"/>
      <point x="309" y="-14"/>
      <point x="384" y="-14" type="curve" smooth="yes"/>
      <point x="480" y="-14"/>
      <point x="555" y="70"/>
      <point x="555" y="205" type="curve"/>
      <point x="555" y="367"/>
      <point x="435" y="450"/>
      <point x="333" y="450" type="curve"/>
      <point x="252" y="450"/>
      <point x="147" y="395"/>
      <point x="147" y="253" type="curve"/>
      <point x="147" y="152"/>
      <point x="133" y="79"/>
      <point x="61" y="79" type="curve"/>
      <point x="2" y="79"/>
      <point x="-58" y="124"/>
      <point x="-75" y="163" type="curve"/>
      <point x="-96" y="102" type="line"/>
      <point x="-68" y="52"/>
      <point x="7" y="-14"/>
      <point x="71" y="-14" type="curve"/>
      <point x="166" y="-14"/>
      <point x="188" y="88"/>
      <point x="188" y="254" type="curve"/>
      <point x="188" y="360"/>
      <point x="265" y="378"/>
      <point x="333" y="378" type="curve" smooth="yes"/>
      <point x="415" y="378"/>
      <point x="521" y="309"/>
      <point x="521" y="203" type="curve"/>
    </contour>
  </outline>
</glyph>
<glyph name="knmEE" format="1">
  <advance width="274"/>
  <unicode hex="0CC7"/>
  <outline>
    <contour>
      <point x="116" y="341"/>
      <point x="107" y="314"/>
      <point x="107" y="283" type="curve" smooth="yes"/>
      <point x="107" y="232"/>
      <point x="131" y="199"/>
      <point x="173" y="199" type="curve" smooth="yes"/>
      <point x="205" y="199"/>
      <point x="254" y="234"/>
      <point x="254" y="300" type="curve" smooth="yes"/>
      <point x="254" y="366"/>
      <point x="222" y="414"/>
      <point x="166" y="414" type="curve" smooth="yes"/>
      <point x="87" y="414"/>
      <point x="43" y="316"/>
      <point x="43" y="216" type="curve" smooth="yes"/>
      <point x="43" y="131"/>
      <point x="76" y="51"/>
      <point x="136" y="-13" type="curve"/>
      <point x="182" y="-13" type="line"/>
      <point x="181" y="12" type="line"/>
      <point x="113" y="79"/>
      <point x="74" y="148"/>
      <point x="74" y="209" type="curve"/>
      <point x="74" y="301"/>
      <point x="111" y="355"/>
      <point x="172" y="355" type="curve" smooth="yes"/>
      <point x="205" y="355"/>
      <point x="230" y="336"/>
      <point x="230" y="302" type="curve" smooth="yes"/>
      <point x="230" y="276"/>
      <point x="208" y="250"/>
      <point x="174" y="250" type="curve" smooth="yes"/>
      <point x="144" y="250"/>
      <point x="128" y="273"/>
      <point x="128" y="302" type="curve" smooth="yes"/>
      <point x="128" y="331"/>
      <point x="140" y="355"/>
      <point x="163" y="381" type="curve"/>
      <point x="125" y="365" type="line"/>
    </contour>
    <contour>
      <point x="-68" y="476" type="line"/>
      <point x="-68" y="559"/>
      <point x="-129" y="619"/>
      <point x="-190" y="619" type="curve" smooth="yes"/>
      <point x="-256" y="619"/>
      <point x="-278" y="587"/>
      <point x="-278" y="559" type="curve" smooth="yes"/>
      <point x="-278" y="528"/>
      <point x="-256" y="503"/>
      <point x="-226" y="503" type="curve" smooth="yes"/>
      <point x="-193" y="503"/>
      <point x="-178" y="525"/>
      <point x="-178" y="557" type="curve"/>
      <point x="-179" y="581"/>
      <point x="-176" y="587"/>
      <point x="-162" y="587" type="curve" smooth="yes"/>
      <point x="-136" y="587"/>
      <point x="-114" y="540"/>
      <point x="-114" y="505" type="curve" smooth="yes"/>
      <point x="-114" y="496" type="line"/>
    </contour>
  </outline>
</glyph>
<glyph name="knmAI" format="1">
  <advance width="50"/>
  <unicode hex="0CC8"/>
  <outline>
    <contour>
      <point x="-19" y="-91" type="line"/>
      <point x="12" y="-105"/>
      <point x="45" y="-135"/>
      <point x="45" y="-181" type="curve" smooth="yes"/>
      <point x="45" y="-229"/>
      <point x="8" y="-262"/>
      <point x="-45" y="-262" type="curve" smooth="yes"/>
      <point x="-109" y="-262"/>
      <point x="-147" y="-226"/>
      <point x="-147" y="-174" type="curve" smooth="yes"/>
      <point x="-147" y="-158"/>
      <point x="-143" y="-138"/>
      <point x="-131" y="-125" type="curve"/>
      <point x="-132" y="-130"/>
      <point x="-133" y="-137"/>
      <point x="-133" y="-141" type="curve" smooth="yes"/>
      <point x="-133" y="-173"/>
      <point x="-113" y="-191"/>
      <point x="-92" y="-191" type="curve" smooth="yes"/>
      <point x="-68" y="-191"/>
      <point x="-53" y="-166"/>
      <point x="-53" y="-138" type="curve" smooth="yes"/>
      <point x="-53" y="-108"/>
      <point x="-66" y="-84"/>
      <point x="-96" y="-84" type="curve" smooth="yes"/>
      <point x="-136" y="-84"/>
      <point x="-165" y="-134"/>
      <point x="-165" y="-183" type="curve" smooth="yes"/>
      <point x="-165" y="-241"/>
      <point x="-127" y="-297"/>
      <point x="-50" y="-297" type="curve" smooth="yes"/>
      <point x="26" y="-297"/>
      <point x="65" y="-252"/>
      <point x="65" y="-185" type="curve" smooth="yes"/>
      <point x="65" y="-122"/>
      <point x="14" y="-86"/>
      <point x="-17" y="-82" type="curve"/>
    </contour>
    <contour>
      <point x="-80" y="-110"/>
      <point x="-67" y="-120"/>
      <point x="-67" y="-138" type="curve" smooth="yes"/>
      <point x="-67" y="-149"/>
      <point x="-75" y="-158"/>
      <point x="-92" y="-158" type="curve" smooth="yes"/>
      <point x="-105" y="-158"/>
      <point x="-118" y="-150"/>
      <point x="-118" y="-130" type="curve" smooth="yes"/>
      <point x="-118" y="-125"/>
      <point x="-118" y="-120"/>
      <point x="-117" y="-116" type="curve"/>
      <point x="-113" y="-113"/>
      <point x="-106" y="-110"/>
      <point x="-98" y="-110" type="curve" smooth="yes"/>
    </contour>
    <contour>
      <point x="-16" y="37" type="line"/>
      <point x="8" y="27"/>
      <point x="26" y="4"/>
      <point x="26" y="-20" type="curve" smooth="yes"/>
      <point x="26" y="-49"/>
      <point x="3" y="-73"/>
      <point x="-17" y="-82" type="curve"/>
      <point x="-5" y="-92" type="line"/>
      <point x="26" y="-79"/>
      <point x="56" y="-57"/>
      <point x="56" y="-21" type="curve" smooth="yes"/>
      <point x="56" y="13"/>
      <point x="23" y="36"/>
      <point x="-9" y="48" type="curve"/>
    </contour>
    <contour>
      <point x="-253" y="619"/>
      <point x="-275" y="587"/>
      <point x="-275" y="559" type="curve" smooth="yes"/>
      <point x="-275" y="528"/>
      <point x="-253" y="503"/>
      <point x="-223" y="503" type="curve" smooth="yes"/>
      <point x="-190" y="503"/>
      <point x="-175" y="525"/>
      <point x="-175" y="557" type="curve"/>
      <point x="-176" y="581"/>
      <point x="-173" y="587"/>
      <point x="-159" y="587" type="curve" smooth="yes"/>
      <point x="-133" y="587"/>
      <point x="-111" y="540"/>
      <point x="-111" y="505" type="curve" smooth="yes"/>
      <point x="-111" y="464"/>
      <point x="-137" y="440"/>
      <point x="-183" y="440" type="curve"/>
      <point x="-183" y="368" type="line"/>
      <point x="-114" y="368"/>
      <point x="-65" y="416"/>
      <point x="-65" y="476" type="curve" smooth="yes"/>
      <point x="-65" y="559"/>
      <point x="-126" y="619"/>
      <point x="-187" y="619" type="curve" smooth="yes"/>
    </contour>
  </outline>
</glyph>
<glyph name="knmO" format="1">
  <advance width="634"/>
  <unicode hex="0CCA"/>
  <outline>
    <contour>
      <point x="530" y="120"/>
      <point x="487" y="55"/>
      <point x="410" y="55" type="curve" smooth="yes"/>
      <point x="345" y="55"/>
      <point x="308" y="96"/>
      <point x="308" y="145" type="curve"/>
      <point x="308" y="182"/>
      <point x="316" y="204"/>
      <point x="327" y="204" type="curve" smooth="yes"/>
      <point x="331" y="204"/>
      <point x="332" y="200"/>
      <point x="332" y="196" type="curve" smooth="yes"/>
      <point x="332" y="164"/>
      <point x="351" y="142"/>
      <point x="380" y="142" type="curve" smooth="yes"/>
      <point x="410" y="142"/>
      <point x="432" y="167"/>
      <point x="432" y="198" type="curve" smooth="yes"/>
      <point x="432" y="226"/>
      <point x="410" y="258"/>
      <point x="364" y="258" type="curve" smooth="yes"/>
      <point x="295" y="258"/>
      <point x="263" y="201"/>
      <point x="263" y="133" type="curve"/>
      <point x="263" y="47"/>
      <point x="318" y="-14"/>
      <point x="393" y="-14" type="curve" smooth="yes"/>
      <point x="489" y="-14"/>
      <point x="564" y="70"/>
      <point x="564" y="205" type="curve"/>
      <point x="564" y="367"/>
      <point x="444" y="450"/>
      <point x="342" y="450" type="curve"/>
      <point x="261" y="450"/>
      <point x="156" y="395"/>
      <point x="156" y="253" type="curve"/>
      <point x="156" y="152"/>
      <point x="142" y="79"/>
      <point x="70" y="79" type="curve"/>
      <point x="11" y="79"/>
      <point x="-49" y="124"/>
      <point x="-66" y="163" type="curve"/>
      <point x="-87" y="102" type="line"/>
      <point x="-59" y="52"/>
      <point x="16" y="-14"/>
      <point x="80" y="-14" type="curve"/>
      <point x="175" y="-14"/>
      <point x="197" y="88"/>
      <point x="197" y="254" type="curve"/>
      <point x="197" y="360"/>
      <point x="274" y="378"/>
      <point x="342" y="378" type="curve" smooth="yes"/>
      <point x="424" y="378"/>
      <point x="530" y="309"/>
      <point x="530" y="203" type="curve"/>
    </contour>
    <contour>
      <point x="-253" y="619"/>
      <point x="-275" y="587"/>
      <point x="-275" y="559" type="curve" smooth="yes"/>
      <point x="-275" y="528"/>
      <point x="-253" y="503"/>
      <point x="-223" y="503" type="curve" smooth="yes"/>
      <point x="-190" y="503"/>
      <point x="-175" y="525"/>
      <point x="-175" y="557" type="curve"/>
      <point x="-176" y="581"/>
      <point x="-173" y="587"/>
      <point x="-159" y="587" type="curve" smooth="yes"/>
      <point x="-133" y="587"/>
      <point x="-111" y="540"/>
      <point x="-111" y="505" type="curve" smooth="yes"/>
      <point x="-111" y="464"/>
      <point x="-137" y="440"/>
      <point x="-183" y="440" type="curve"/>
      <point x="-183" y="368" type="line"/>
      <point x="-114" y="368"/>
      <point x="-65" y="416"/>
      <point x="-65" y="476" type="curve" smooth="yes"/>
      <point x="-65" y="559"/>
      <point x="-126" y="619"/>
      <point x="-187" y="619" type="curve" smooth="yes"/>
    </contour>
  </outline>
</glyph>
<glyph name="knmOO" format="1">
  <advance width="891"/>
  <unicode hex="0CCB"/>
  <outline>
    <contour>
      <point x="733" y="341"/>
      <point x="724" y="314"/>
      <point x="724" y="283" type="curve" smooth="yes"/>
      <point x="724" y="232"/>
      <point x="748" y="199"/>
      <point x="790" y="199" type="curve" smooth="yes"/>
      <point x="822" y="199"/>
      <point x="871" y="234"/>
      <point x="871" y="300" type="curve" smooth="yes"/>
      <point x="871" y="366"/>
      <point x="839" y="414"/>
      <point x="783" y="414" type="curve" smooth="yes"/>
      <point x="704" y="414"/>
      <point x="660" y="316"/>
      <point x="660" y="216" type="curve" smooth="yes"/>
      <point x="660" y="131"/>
      <point x="693" y="51"/>
      <point x="753" y="-13" type="curve"/>
      <point x="799" y="-13" type="line"/>
      <point x="798" y="12" type="line"/>
      <point x="730" y="79"/>
      <point x="691" y="148"/>
      <point x="691" y="209" type="curve"/>
      <point x="691" y="301"/>
      <point x="728" y="355"/>
      <point x="789" y="355" type="curve" smooth="yes"/>
      <point x="822" y="355"/>
      <point x="847" y="336"/>
      <point x="847" y="302" type="curve" smooth="yes"/>
      <point x="847" y="276"/>
      <point x="825" y="250"/>
      <point x="791" y="250" type="curve" smooth="yes"/>
      <point x="761" y="250"/>
      <point x="745" y="273"/>
      <point x="745" y="302" type="curve" smooth="yes"/>
      <point x="745" y="331"/>
      <point x="757" y="355"/>
      <point x="780" y="381" type="curve"/>
      <point x="742" y="365" type="line"/>
    </contour>
    <contour>
      <point x="530" y="120"/>
      <point x="487" y="55"/>
      <point x="410" y="55" type="curve" smooth="yes"/>
      <point x="345" y="55"/>
      <point x="308" y="96"/>
      <point x="308" y="145" type="curve"/>
      <point x="308" y="182"/>
      <point x="316" y="204"/>
      <point x="327" y="204" type="curve" smooth="yes"/>
      <point x="331" y="204"/>
      <point x="332" y="200"/>
      <point x="332" y="196" type="curve" smooth="yes"/>
      <point x="332" y="164"/>
      <point x="351" y="142"/>
      <point x="380" y="142" type="curve" smooth="yes"/>
      <point x="410" y="142"/>
      <point x="432" y="167"/>
      <point x="432" y="198" type="curve" smooth="yes"/>
      <point x="432" y="226"/>
      <point x="410" y="258"/>
      <point x="364" y="258" type="curve" smooth="yes"/>
      <point x="295" y="258"/>
      <point x="263" y="201"/>
      <point x="263" y="133" type="curve"/>
      <point x="263" y="47"/>
      <point x="318" y="-14"/>
      <point x="393" y="-14" type="curve" smooth="yes"/>
      <point x="489" y="-14"/>
      <point x="564" y="70"/>
      <point x="564" y="205" type="curve"/>
      <point x="564" y="367"/>
      <point x="444" y="450"/>
      <point x="342" y="450" type="curve"/>
      <point x="261" y="450"/>
      <point x="156" y="395"/>
      <point x="156" y="253" type="curve"/>
      <point x="156" y="152"/>
      <point x="142" y="79"/>
      <point x="70" y="79" type="curve"/>
      <point x="11" y="79"/>
      <point x="-49" y="124"/>
      <point x="-66" y="163" type="curve"/>
      <point x="-87" y="102" type="line"/>
      <point x="-59" y="52"/>
      <point x="16" y="-14"/>
      <point x="80" y="-14" type="curve"/>
      <point x="175" y="-14"/>
      <point x="197" y="88"/>
      <point x="197" y="254" type="curve"/>
      <point x="197" y="360"/>
      <point x="274" y="378"/>
      <point x="342" y="378" type="curve" smooth="yes"/>
      <point x="424" y="378"/>
      <point x="530" y="309"/>
      <point x="530" y="203" type="curve"/>
    </contour>
    <contour>
      <point x="-253" y="619"/>
      <point x="-275" y="587"/>
      <point x="-275" y="559" type="curve" smooth="yes"/>
      <point x="-275" y="528"/>
      <point x="-253" y="503"/>
      <point x="-223" y="503" type="curve" smooth="yes"/>
      <point x="-190" y="503"/>
      <point x="-175" y="525"/>
      <point x="-175" y="557" type="curve"/>
      <point x="-176" y="581"/>
      <point x="-173" y="587"/>
      <point x="-159" y="587" type="curve" smooth="yes"/>
      <point x="-133" y="587"/>
      <point x="-111" y="540"/>
      <point x="-111" y="505" type="curve" smooth="yes"/>
      <point x="-111" y="464"/>
      <point x="-137" y="440"/>
      <point x="-183" y="440" type="curve"/>
      <point x="-183" y="368" type="line"/>
      <point x="-114" y="368"/>
      <point x="-65" y="416"/>
      <point x="-65" y="476" type="curve" smooth="yes"/>
      <point x="-65" y="559"/>
      <point x="-126" y="619"/>
      <point x="-187" y="619" type="curve" smooth="yes"/>
    </contour>
  </outline>
</glyph>
<glyph name="knLLLA" format="1">
  <advance width="742"/>
  <unicode hex="0CDE"/>
  <outline>
    <contour>
      <point x="272" y="324"/>
      <point x="256" y="306"/>
      <point x="224" y="306" type="curve" smooth="yes"/>
      <point x="196" y="306"/>
      <point x="172" y="322"/>
      <point x="172" y="362" type="curve" smooth="yes"/>
      <point x="172" y="371"/>
      <point x="173" y="381"/>
      <point x="175" y="390" type="curve"/>
      <point x="185" y="394"/>
      <point x="197" y="397"/>
      <point x="209" y="397" type="curve" smooth="yes"/>
      <point x="251" y="397"/>
      <point x="272" y="381"/>
      <point x="272" y="347" type="curve" smooth="yes"/>
    </contour>
    <contour>
      <point x="470" y="381"/>
      <point x="491" y="397"/>
      <point x="533" y="397" type="curve" smooth="yes"/>
      <point x="545" y="397"/>
      <point x="557" y="394"/>
      <point x="567" y="390" type="curve"/>
      <point x="569" y="381"/>
      <point x="570" y="371"/>
      <point x="570" y="362" type="curve" smooth="yes"/>
      <point x="570" y="322"/>
      <point x="546" y="306"/>
      <point x="518" y="306" type="curve" smooth="yes"/>
      <point x="486" y="306"/>
      <point x="470" y="324"/>
      <point x="470" y="347" type="curve" smooth="yes"/>
    </contour>
    <contour>
      <point x="392" y="37"/>
      <point x="451" y="-14"/>
      <point x="510" y="-14" type="curve" smooth="yes"/>
      <point x="616" y="-14"/>
      <point x="672" y="111"/>
      <point x="672" y="206" type="curve"/>
      <point x="672" y="364"/>
      <point x="603" y="450"/>
      <point x="528" y="450" type="curve" smooth="yes"/>
      <point x="467" y="450"/>
      <point x="444" y="404"/>
      <point x="444" y="347" type="curve" smooth="yes"/>
      <point x="444" y="290"/>
      <point x="472" y="244"/>
      <point x="518" y="244" type="curve" smooth="yes"/>
      <point x="560" y="244"/>
      <point x="596" y="275"/>
      <point x="596" y="338" type="curve" smooth="yes"/>
      <point x="596" y="350"/>
      <point x="595" y="361"/>
      <point x="593" y="371" type="curve"/>
      <point x="617" y="346"/>
      <point x="631" y="306"/>
      <point x="631" y="229" type="curve"/>
      <point x="631" y="132"/>
      <point x="578" y="79"/>
      <point x="507" y="79" type="curve" smooth="yes"/>
      <point x="444" y="79"/>
      <point x="387" y="126"/>
      <point x="375" y="192" type="curve"/>
      <point x="367" y="192" type="line"/>
      <point x="355" y="126"/>
      <point x="298" y="79"/>
      <point x="235" y="79" type="curve" smooth="yes"/>
      <point x="164" y="79"/>
      <point x="111" y="132"/>
      <point x="111" y="229" type="curve"/>
      <point x="111" y="306"/>
      <point x="125" y="346"/>
      <point x="149" y="371" type="curve"/>
      <point x="147" y="361"/>
      <point x="146" y="350"/>
      <point x="146" y="338" type="curve" smooth="yes"/>
      <point x="146" y="275"/>
      <point x="182" y="244"/>
      <point x="224" y="244" type="curve" smooth="yes"/>
      <point x="270" y="244"/>
      <point x="298" y="290"/>
      <point x="298" y="347" type="curve" smooth="yes"/>
      <point x="298" y="404"/>
      <point x="275" y="450"/>
      <point x="214" y="450" type="curve" smooth="yes"/>
      <point x="139" y="450"/>
      <point x="70" y="364"/>
      <point x="70" y="206" type="curve"/>
      <point x="70" y="111"/>
      <point x="126" y="-14"/>
      <point x="232" y="-14" type="curve" smooth="yes"/>
      <point x="291" y="-14"/>
      <point x="350" y="37"/>
      <point x="370" y="110" type="curve"/>
      <point x="372" y="110" type="line"/>
    </contour>
  </outline>
</glyph>
<glyph name="knvLL" format="1">
  <advance width="1180"/>
  <unicode hex="0CE1"/>
  <outline>
    <contour>
      <point x="665" y="405" type="line"/>
      <point x="722" y="351"/>
      <point x="781" y="282"/>
      <point x="781" y="205" type="curve"/>
      <point x="781" y="126"/>
      <point x="731" y="79"/>
      <point x="634" y="79" type="curve" smooth="yes"/>
      <point x="507" y="79" type="line" smooth="yes"/>
      <point x="453" y="79"/>
      <point x="425" y="102"/>
      <point x="425" y="138" type="curve" smooth="yes"/>
      <point x="425" y="217"/>
      <point x="549" y="200"/>
      <point x="549" y="321" type="curve" smooth="yes"/>
      <point x="549" y="399"/>
      <point x="498" y="450"/>
      <point x="445" y="450" type="curve" smooth="yes"/>
      <point x="377" y="450"/>
      <point x="322" y="399"/>
      <point x="303" y="326" type="curve"/>
      <point x="301" y="326" type="line"/>
      <point x="281" y="399"/>
      <point x="221" y="450"/>
      <point x="161" y="450" type="curve" smooth="yes"/>
      <point x="95" y="450"/>
      <point x="44" y="395"/>
      <point x="44" y="326" type="curve" smooth="yes"/>
      <point x="44" y="300"/>
      <point x="51" y="277"/>
      <point x="70" y="256" type="curve"/>
      <point x="97" y="274" type="line"/>
      <point x="91" y="281"/>
      <point x="86" y="294"/>
      <point x="86" y="306" type="curve" smooth="yes"/>
      <point x="86" y="339"/>
      <point x="113" y="357"/>
      <point x="154" y="357" type="curve" smooth="yes"/>
      <point x="225" y="357"/>
      <point x="286" y="310"/>
      <point x="298" y="244" type="curve"/>
      <point x="306" y="244" type="line"/>
      <point x="317" y="310"/>
      <point x="376" y="357"/>
      <point x="432" y="357" type="curve" smooth="yes"/>
      <point x="478" y="357"/>
      <point x="508" y="334"/>
      <point x="508" y="296" type="curve" smooth="yes"/>
      <point x="508" y="232"/>
      <point x="384" y="237"/>
      <point x="384" y="120" type="curve" smooth="yes"/>
      <point x="384" y="46"/>
      <point x="430" y="-14"/>
      <point x="487" y="-14" type="curve" smooth="yes"/>
      <point x="654" y="-14" type="line" smooth="yes"/>
      <point x="757" y="-14"/>
      <point x="818" y="62"/>
      <point x="818" y="187" type="curve"/>
      <point x="818" y="267"/>
      <point x="790" y="331"/>
      <point x="747" y="378" type="curve"/>
      <point x="955" y="378" type="line"/>
      <point x="1047" y="378"/>
      <point x="1120" y="313"/>
      <point x="1120" y="187" type="curve" smooth="yes"/>
      <point x="1120" y="107"/>
      <point x="1079" y="42"/>
      <point x="1007" y="42" type="curve" smooth="yes"/>
      <point x="970" y="42"/>
      <point x="940" y="67"/>
      <point x="940" y="99" type="curve"/>
      <point x="940" y="113"/>
      <point x="946" y="133"/>
      <point x="957" y="133" type="curve" smooth="yes"/>
      <point x="959" y="133"/>
      <point x="960" y="132"/>
      <point x="960" y="127" type="curve" smooth="yes"/>
      <point x="960" y="101"/>
      <point x="975" y="83"/>
      <point x="999" y="83" type="curve" smooth="yes"/>
      <point x="1023" y="83"/>
      <point x="1041" y="103"/>
      <point x="1041" y="128" type="curve" smooth="yes"/>
      <point x="1041" y="151"/>
      <point x="1020" y="177"/>
      <point x="982" y="177" type="curve" smooth="yes"/>
      <point x="930" y="177"/>
      <point x="904" y="131"/>
      <point x="904" y="84" type="curve"/>
      <point x="904" y="30"/>
      <point x="948" y="-14"/>
      <point x="1001" y="-14" type="curve" smooth="yes"/>
      <point x="1087" y="-14"/>
      <point x="1156" y="65"/>
      <point x="1156" y="217" type="curve" smooth="yes"/>
      <point x="1156" y="379"/>
      <point x="1057" y="450"/>
      <point x="955" y="450" type="curve"/>
      <point x="698" y="450" type="line"/>
    </contour>
  </outline>
</glyph>
<glyph name="knmvL" format="1">
  <advance width="10"/>
  <unicode hex="0CE2"/>
  <outline>
    <contour>
      <point x="178" y="-211"/>
      <point x="173" y="-191"/>
      <point x="166" y="-180" type="curve"/>
      <point x="150" y="-189" type="line"/>
      <point x="153" y="-198"/>
      <point x="155" y="-208"/>
      <point x="155" y="-224" type="curve"/>
      <point x="155" y="-262"/>
      <point x="139" y="-285"/>
      <point x="92" y="-285" type="curve" smooth="yes"/>
      <point x="53" y="-285"/>
      <point x="36" y="-270"/>
      <point x="36" y="-248" type="curve" smooth="yes"/>
      <point x="36" y="-198"/>
      <point x="114" y="-209"/>
      <point x="114" y="-132" type="curve" smooth="yes"/>
      <point x="114" y="-83"/>
      <point x="82" y="-51"/>
      <point x="48" y="-51" type="curve" smooth="yes"/>
      <point x="5" y="-51"/>
      <point x="-29" y="-83"/>
      <point x="-41" y="-129" type="curve"/>
      <point x="-42" y="-129" type="line"/>
      <point x="-55" y="-83"/>
      <point x="-93" y="-51"/>
      <point x="-131" y="-51" type="curve" smooth="yes"/>
      <point x="-172" y="-51"/>
      <point x="-204" y="-86"/>
      <point x="-204" y="-129" type="curve" smooth="yes"/>
      <point x="-204" y="-146"/>
      <point x="-200" y="-160"/>
      <point x="-188" y="-173" type="curve"/>
      <point x="-171" y="-162" type="line"/>
      <point x="-175" y="-158"/>
      <point x="-178" y="-149"/>
      <point x="-178" y="-142" type="curve" smooth="yes"/>
      <point x="-178" y="-121"/>
      <point x="-161" y="-110"/>
      <point x="-135" y="-110" type="curve" smooth="yes"/>
      <point x="-90" y="-110"/>
      <point x="-52" y="-139"/>
      <point x="-44" y="-181" type="curve"/>
      <point x="-39" y="-181" type="line"/>
      <point x="-32" y="-139"/>
      <point x="5" y="-110"/>
      <point x="40" y="-110" type="curve" smooth="yes"/>
      <point x="69" y="-110"/>
      <point x="88" y="-124"/>
      <point x="88" y="-148" type="curve" smooth="yes"/>
      <point x="88" y="-188"/>
      <point x="10" y="-185"/>
      <point x="10" y="-259" type="curve" smooth="yes"/>
      <point x="10" y="-306"/>
      <point x="39" y="-343"/>
      <point x="93" y="-343" type="curve" smooth="yes"/>
      <point x="160" y="-343"/>
      <point x="178" y="-290"/>
      <point x="178" y="-239" type="curve"/>
    </contour>
    <contour>
      <point x="-42" y="0" type="move" name="_bottom"/>
    </contour>
  </outline>
</glyph>
<glyph name="knZero" format="1">
  <advance width="482"/>
  <unicode hex="0CE6"/>
  <outline>
    <contour>
      <point x="131" y="450"/>
      <point x="55" y="356"/>
      <point x="55" y="215" type="curve" smooth="yes"/>
      <point x="55" y="72"/>
      <point x="141" y="-14"/>
      <point x="241" y="-14" type="curve"/>
      <point x="341" y="-14"/>
      <point x="427" y="72"/>
      <point x="427" y="215" type="curve" smooth="yes"/>
      <point x="427" y="356"/>
      <point x="351" y="450"/>
      <point x="241" y="450" type="curve"/>
    </contour>
    <contour>
      <point x="318" y="384"/>
      <point x="387" y="339"/>
      <point x="387" y="225" type="curve" smooth="yes"/>
      <point x="387" y="100"/>
      <point x="326" y="52"/>
      <point x="241" y="52" type="curve"/>
      <point x="156" y="52"/>
      <point x="95" y="100"/>
      <point x="95" y="225" type="curve" smooth="yes"/>
      <point x="95" y="339"/>
      <point x="164" y="384"/>
      <point x="241" y="384" type="curve"/>
    </contour>
  </outline>
</glyph>
<glyph name="knTwo" format="1">
  <advance width="438"/>
  <unicode hex="0CE8"/>
  <outline>
    <contour>
      <point x="163" y="52" type="line" smooth="yes"/>
      <point x="289" y="52"/>
      <point x="348" y="126"/>
      <point x="348" y="224" type="curve" smooth="yes"/>
      <point x="348" y="329"/>
      <point x="304" y="384"/>
      <point x="239" y="384" type="curve" smooth="yes"/>
      <point x="195" y="384"/>
      <point x="167" y="359"/>
      <point x="167" y="328" type="curve" smooth="yes"/>
      <point x="167" y="298"/>
      <point x="190" y="279"/>
      <point x="222" y="279" type="curve" smooth="yes"/>
      <point x="249" y="279"/>
      <point x="265" y="289"/>
      <point x="278" y="299" type="curve"/>
      <point x="292" y="282" type="line"/>
      <point x="287" y="240"/>
      <point x="249" y="212"/>
      <point x="217" y="212" type="curve" smooth="yes"/>
      <point x="161" y="212"/>
      <point x="129" y="260"/>
      <point x="129" y="324" type="curve" smooth="yes"/>
      <point x="129" y="390"/>
      <point x="167" y="450"/>
      <point x="237" y="450" type="curve" smooth="yes"/>
      <point x="319" y="450"/>
      <point x="383" y="366"/>
      <point x="383" y="224" type="curve" smooth="yes"/>
      <point x="383" y="90"/>
      <point x="308" y="-14"/>
      <point x="143" y="-14" type="curve" smooth="yes"/>
      <point x="20" y="-14" type="line"/>
      <point x="20" y="52" type="line"/>
    </contour>
  </outline>
</glyph>
<glyph name="knThree" format="1">
  <advance width="484"/>
  <unicode hex="0CE9"/>
  <outline>
    <contour>
      <point x="254" y="-14"/>
      <point x="252" y="152"/>
      <point x="131" y="152" type="curve" smooth="yes"/>
      <point x="89" y="152"/>
      <point x="63" y="136"/>
      <point x="63" y="104" type="curve" smooth="yes"/>
      <point x="63" y="77"/>
      <point x="91" y="58"/>
      <point x="137" y="58" type="curve"/>
      <point x="206" y="58"/>
      <point x="273" y="115"/>
      <point x="273" y="235" type="curve"/>
      <point x="273" y="329"/>
      <point x="229" y="384"/>
      <point x="164" y="384" type="curve"/>
      <point x="119" y="384"/>
      <point x="92" y="365"/>
      <point x="92" y="339" type="curve" smooth="yes"/>
      <point x="92" y="314"/>
      <point x="115" y="299"/>
      <point x="147" y="299" type="curve" smooth="yes"/>
      <point x="174" y="299"/>
      <point x="190" y="309"/>
      <point x="203" y="319" type="curve"/>
      <point x="217" y="302" type="line"/>
      <point x="212" y="260"/>
      <point x="174" y="232"/>
      <point x="142" y="232" type="curve" smooth="yes"/>
      <point x="86" y="232"/>
      <point x="54" y="276"/>
      <point x="54" y="336" type="curve" smooth="yes"/>
      <point x="54" y="400"/>
      <point x="92" y="450"/>
      <point x="162" y="450" type="curve"/>
      <point x="244" y="450"/>
      <point x="308" y="366"/>
      <point x="308" y="224" type="curve"/>
      <point x="308" y="106"/>
      <point x="238" y="-14"/>
      <point x="138" y="-14" type="curve" smooth="yes"/>
      <point x="59" y="-14"/>
      <point x="25" y="35"/>
      <point x="25" y="91" type="curve" smooth="yes"/>
      <point x="25" y="145"/>
      <point x="62" y="184"/>
      <point x="133" y="184" type="curve" smooth="yes"/>
      <point x="236" y="184"/>
      <point x="298" y="58"/>
      <point x="393" y="58" type="curve"/>
      <point x="425" y="58"/>
      <point x="446" y="65"/>
      <point x="470" y="93" type="curve"/>
      <point x="484" y="81" type="line"/>
      <point x="479" y="39"/>
      <point x="451" y="-14"/>
      <point x="389" y="-14" type="curve"/>
    </contour>
  </outline>
</glyph>
<glyph name="knSix" format="1">
  <advance width="417"/>
  <unicode hex="0CEC"/>
  <outline>
    <contour>
      <point x="329" y="169"/>
      <point x="290" y="134"/>
      <point x="233" y="134" type="curve"/>
      <point x="176" y="134"/>
      <point x="140" y="170"/>
      <point x="140" y="223" type="curve" smooth="yes"/>
      <point x="140" y="276"/>
      <point x="203" y="287"/>
      <point x="203" y="355" type="curve"/>
      <point x="203" y="390"/>
      <point x="180" y="405"/>
      <point x="148" y="405" type="curve" smooth="yes"/>
      <point x="121" y="405"/>
      <point x="105" y="395"/>
      <point x="92" y="385" type="curve"/>
      <point x="78" y="402" type="line"/>
      <point x="93" y="444"/>
      <point x="121" y="472"/>
      <point x="163" y="472" type="curve" smooth="yes"/>
      <point x="209" y="472"/>
      <point x="243" y="441"/>
      <point x="243" y="388" type="curve" smooth="yes"/>
      <point x="243" y="273"/>
      <point x="167" y="275"/>
      <point x="167" y="221" type="curve" smooth="yes"/>
      <point x="167" y="187"/>
      <point x="194" y="165"/>
      <point x="229" y="165" type="curve" smooth="yes"/>
      <point x="267" y="165"/>
      <point x="295" y="180"/>
      <point x="295" y="214" type="curve"/>
      <point x="295" y="247"/>
      <point x="259" y="266"/>
      <point x="209" y="266" type="curve" smooth="yes"/>
      <point x="162" y="266"/>
      <point x="88" y="235"/>
      <point x="88" y="162" type="curve"/>
      <point x="88" y="110"/>
      <point x="129" y="72"/>
      <point x="232" y="72" type="curve" smooth="yes"/>
      <point x="412" y="72" type="line"/>
      <point x="412" y="0" type="line"/>
      <point x="233" y="0" type="line" smooth="yes"/>
      <point x="94" y="0"/>
      <point x="60" y="64"/>
      <point x="60" y="153" type="curve" smooth="yes"/>
      <point x="60" y="242"/>
      <point x="116" y="315"/>
      <point x="211" y="315" type="curve"/>
      <point x="280" y="315"/>
      <point x="329" y="283"/>
      <point x="329" y="217" type="curve"/>
    </contour>
  </outline>
</glyph>
<glyph name="knSeven" format="1">
  <advance width="402"/>
  <unicode hex="0CED"/>
  <outline>
    <contour>
      <point x="229" y="440"/>
      <point x="184" y="472"/>
      <point x="148" y="472" type="curve" smooth="yes"/>
      <point x="106" y="472"/>
      <point x="78" y="444"/>
      <point x="63" y="402" type="curve"/>
      <point x="77" y="385" type="line"/>
      <point x="89" y="397"/>
      <point x="106" y="405"/>
      <point x="133" y="405" type="curve" smooth="yes"/>
      <point x="167" y="405"/>
      <point x="189" y="387"/>
      <point x="189" y="347" type="curve"/>
      <point x="189" y="254"/>
      <point x="45" y="225"/>
      <point x="45" y="123" type="curve"/>
      <point x="45" y="59"/>
      <point x="79" y="0"/>
      <point x="218" y="0" type="curve" smooth="yes"/>
      <point x="397" y="0" type="line"/>
      <point x="397" y="72" type="line"/>
      <point x="217" y="72" type="line" smooth="yes"/>
      <point x="119" y="72"/>
      <point x="84" y="93"/>
      <point x="84" y="130" type="curve"/>
      <point x="84" y="205"/>
      <point x="229" y="235"/>
      <point x="229" y="367" type="curve" smooth="yes"/>
    </contour>
  </outline>
</glyph>
<glyph name="knEight" format="1">
  <advance width="556"/>
  <unicode hex="0CEE"/>
  <outline>
    <contour>
      <point x="506" y="440" type="line"/>
      <point x="465" y="440" type="line"/>
      <point x="413" y="440"/>
      <point x="368" y="403"/>
      <point x="368" y="350" type="curve" smooth="yes"/>
      <point x="368" y="273"/>
      <point x="440" y="247"/>
      <point x="440" y="183" type="curve" smooth="yes"/>
      <point x="440" y="116"/>
      <point x="391" y="79"/>
      <point x="292" y="79" type="curve"/>
      <point x="177" y="79"/>
      <point x="101" y="151"/>
      <point x="101" y="261" type="curve" smooth="yes"/>
      <point x="101" y="306"/>
      <point x="115" y="346"/>
      <point x="139" y="371" type="curve"/>
      <point x="137" y="361"/>
      <point x="136" y="350"/>
      <point x="136" y="339" type="curve" smooth="yes"/>
      <point x="136" y="275"/>
      <point x="172" y="244"/>
      <point x="212" y="244" type="curve" smooth="yes"/>
      <point x="260" y="244"/>
      <point x="288" y="290"/>
      <point x="288" y="350" type="curve" smooth="yes"/>
      <point x="288" y="404"/>
      <point x="265" y="450"/>
      <point x="209" y="450" type="curve" smooth="yes"/>
      <point x="129" y="450"/>
      <point x="60" y="358"/>
      <point x="60" y="238" type="curve" smooth="yes"/>
      <point x="60" y="88"/>
      <point x="158" y="-14"/>
      <point x="292" y="-14" type="curve"/>
      <point x="417" y="-14"/>
      <point x="487" y="61"/>
      <point x="487" y="161" type="curve" smooth="yes"/>
      <point x="487" y="271"/>
      <point x="408" y="281"/>
      <point x="408" y="341" type="curve" smooth="yes"/>
      <point x="408" y="371"/>
      <point x="432" y="388"/>
      <point x="470" y="388" type="curve"/>
      <point x="506" y="388" type="line"/>
    </contour>
    <contour>
      <point x="241" y="397"/>
      <point x="262" y="381"/>
      <point x="262" y="350" type="curve" smooth="yes"/>
      <point x="262" y="324"/>
      <point x="246" y="306"/>
      <point x="215" y="306" type="curve" smooth="yes"/>
      <point x="186" y="306"/>
      <point x="162" y="322"/>
      <point x="162" y="363" type="curve" smooth="yes"/>
      <point x="162" y="371"/>
      <point x="163" y="381"/>
      <point x="165" y="390" type="curve"/>
      <point x="175" y="394"/>
      <point x="187" y="397"/>
      <point x="203" y="397" type="curve" smooth="yes"/>
    </contour>
  </outline>
</glyph>
<glyph name="bum" format="1">
  <advance width="611"/>
  <outline>
    <contour>
      <point x="556" y="134" type="line"/>
      <point x="530" y="134" type="line"/>
      <point x="530" y="101"/>
      <point x="502" y="79"/>
      <point x="460" y="79" type="curve" smooth="yes"/>
      <point x="396" y="79"/>
      <point x="339" y="127"/>
      <point x="328" y="192" type="curve"/>
      <point x="320" y="192" type="line"/>
      <point x="308" y="126"/>
      <point x="251" y="79"/>
      <point x="188" y="79" type="curve" smooth="yes"/>
      <point x="142" y="79"/>
      <point x="118" y="99"/>
      <point x="118" y="136" type="curve"/>
      <point x="88" y="136" type="line"/>
      <point x="74" y="109" type="line"/>
      <point x="74" y="33"/>
      <point x="127" y="-14"/>
      <point x="185" y="-14" type="curve" smooth="yes"/>
      <point x="244" y="-14"/>
      <point x="303" y="37"/>
      <point x="323" y="110" type="curve"/>
      <point x="325" y="110" type="line"/>
      <point x="345" y="37"/>
      <point x="404" y="-14"/>
      <point x="463" y="-14" type="curve" smooth="yes"/>
      <point x="521" y="-14"/>
      <point x="574" y="33"/>
      <point x="574" y="109" type="curve"/>
    </contour>
  </outline>
</glyph>
<glyph name="drop" format="1">
  <advance width="620"/>
  <outline>
    <contour>
      <point x="426" y="-80"/>
      <point x="389" y="-31"/>
      <point x="378" y="38" type="curve"/>
      <point x="362" y="38" type="line"/>
      <point x="352" y="-31"/>
      <point x="314" y="-80"/>
      <point x="314" y="-116" type="curve" smooth="yes"/>
      <point x="314" y="-158"/>
      <point x="347" y="-176"/>
      <point x="370" y="-176" type="curve"/>
      <point x="391" y="-176"/>
      <point x="426" y="-162"/>
      <point x="426" y="-116" type="curve" smooth="yes"/>
    </contour>
  </outline>
</glyph>
<glyph name="pair" format="1">
  <advance width="659"/>
  <outline>
    <contour>
      <point x="598" y="209" type="line"/>
      <point x="615" y="219" type="line"/>
      <point x="615" y="338"/>
      <point x="562" y="450"/>
      <point x="464" y="450" type="curve" smooth="yes"/>
      <point x="404" y="450"/>
      <point x="345" y="399"/>
      <point x="325" y="326" type="curve"/>
      <point x="323" y="326" type="line"/>
      <point x="303" y="399"/>
      <point x="243" y="450"/>
      <point x="183" y="450" type="curve"/>
      <point x="106" y="450"/>
      <point x="52" y="373"/>
      <point x="52" y="303" type="curve"/>
      <point x="79" y="285" type="line"/>
      <point x="93" y="326"/>
      <point x="125" y="368"/>
      <point x="186" y="368" type="curve" smooth="yes"/>
      <point x="251" y="368"/>
      <point x="308" y="310"/>
      <point x="320" y="244" type="curve"/>
      <point x="328" y="244" type="line"/>
      <point x="339" y="309"/>
      <point x="396" y="368"/>
      <point x="460" y="368" type="curve" smooth="yes"/>
      <point x="529" y="368"/>
      <point x="579" y="320"/>
      <point x="579" y="219" type="curve"/>
    </contour>
  </outline>
</glyph>
<glyph name="thing" format="1">
  <advance width="658"/>
  <outline>
    <contour>
      <point x="252" y="404"/>
      <point x="208" y="369"/>
      <point x="208" y="327" type="curve" smooth="yes"/>
      <point x="208" y="291"/>
      <point x="229" y="255"/>
      <point x="271" y="255" type="curve" smooth="yes"/>
      <point x="300" y="255"/>
      <point x="316" y="274"/>
      <point x="316" y="293" type="curve"/>
      <point x="316" y="312"/>
      <point x="302" y="328"/>
      <point x="283" y="328" type="curve"/>
      <point x="265" y="328"/>
      <point x="253" y="313"/>
      <point x="253" y="294" type="curve" smooth="yes"/>
      <point x="253" y="291"/>
      <point x="252" y="288"/>
      <point x="249" y="288" type="curve"/>
      <point x="241" y="288"/>
      <point x="238" y="304"/>
      <point x="238" y="315" type="curve"/>
      <point x="238" y="341"/>
      <point x="264" y="368"/>
      <point x="301" y="368" type="curve"/>
      <point x="338" y="368"/>
      <point x="371" y="333"/>
      <point x="371" y="287" type="curve" smooth="yes"/>
      <point x="371" y="239"/>
      <point x="341" y="219"/>
      <point x="297" y="219" type="curve"/>
      <point x="282" y="219"/>
      <point x="249" y="219"/>
      <point x="237" y="219" type="curve" smooth="yes"/>
      <point x="173" y="219"/>
      <point x="135" y="181"/>
      <point x="135" y="130" type="curve"/>
      <point x="135" y="51"/>
      <point x="199" y="-14"/>
      <point x="300" y="-14" type="curve" smooth="yes"/>
      <point x="431" y="-14"/>
      <point x="536" y="64"/>
      <point x="536" y="191" type="curve" smooth="yes"/>
      <point x="536" y="290"/>
      <point x="475" y="404"/>
      <point x="333" y="404" type="curve"/>
    </contour>
    <contour>
      <point x="409" y="370"/>
      <point x="482" y="312"/>
      <point x="482" y="225" type="curve"/>
      <point x="482" y="143"/>
      <point x="424" y="78"/>
      <point x="301" y="78" type="curve" smooth="yes"/>
      <point x="214" y="78"/>
      <point x="169" y="97"/>
      <point x="169" y="135" type="curve" smooth="yes"/>
      <point x="169" y="164"/>
      <point x="199" y="184"/>
      <point x="233" y="184" type="curve"/>
      <point x="297" y="184" type="line"/>
      <point x="356" y="184"/>
      <point x="407" y="229"/>
      <point x="407" y="285" type="curve"/>
      <point x="407" y="341"/>
      <point x="374" y="370"/>
      <point x="346" y="370" type="curve"/>
    </contour>
  </outline>
</glyph>
<glyph name="wing" format="1">
  <advance width="625"/>
  <outline>
    <contour>
      <point x="335" y="464"/>
      <point x="255" y="379"/>
      <point x="210" y="299" type="curve"/>
      <point x="214" y="265" type="line"/>
      <point x="272" y="340"/>
      <point x="340" y="404"/>
      <point x="424" y="404" type="curve" smooth="yes"/>
      <point x="480" y="404"/>
      <point x="515" y="372"/>
      <point x="515" y="325" type="curve" smooth="yes"/>
      <point x="515" y="307"/>
      <point x="510" y="291"/>
      <point x="498" y="280" type="curve"/>
      <point x="514" y="266" type="line"/>
      <point x="537" y="281"/>
      <point x="553" y="308"/>
      <point x="553" y="348" type="curve" smooth="yes"/>
      <point x="553" y="409"/>
      <point x="510" y="464"/>
      <point x="437" y="464" type="curve" smooth="yes"/>
    </contour>
  </outline>
</glyph>
